<svg width="873" height="874" xmlns="http://www.w3.org/2000/svg"><g fill-rule="nonzero" fill="none"><path d="M246.2 533.3c-6.6 8.8-3.2 18.6-2.8 28 .1 2.1 1.6 2.5 3 .8.9-1 1.5-2.2 2.3-3.3 5.3-8.1 10.5-16.2 15.8-24.3.8-1.2 1.6-3.6 3.7-2.1 1.9 1.3.4 3-.4 4.4-.5.9-1.1 1.7-1.7 2.5-6.5 10.1-13 20.1-19.6 30.2-1.3 2-2.3 4.1-1.8 6.6 1.5 8 3.1 16 4.7 24 .2 1.1.2 2.6 1.7 2.8 1.4.2 1.8-1.2 2.4-2.2 11.1-17.8 22.1-35.7 33.2-53.4 1.2-1.9 2-5.9 4.9-4.2 2.6 1.5-.4 4.2-1.5 5.9-10.8 17.6-21.4 35.4-32.8 52.6-4.8 7.2-5.6 13.9-2.5 21.5 1.2 3.1 2.2 6.3 3.5 9.4.6 1.4.6 3.7 2.6 3.8 1.7.1 2.2-1.9 2.9-3.1 13.5-23.6 29.3-45.7 42.6-69.4 2.6-4.6 5.4-9.2 8.1-13.8.8-1.3 2-2 3.4-1.3 1.9.9.7 2.2.1 3.3-.5 1-1.1 2-1.7 3.1-14.3 25.8-31 50.1-45.8 75.6-7.6 13-8 12.8-.1 25.8 2.8 4.7 3.3 4.6 6.1 0 10.3-17.3 20.5-34.7 30.9-52 3.4-5.7 5.7-11.3 5.9-18.2.3-12.4 8.1-23.7 17.8-26.5 3.1-.9 5.3-2.5 6.9-5.2 1.3-2.2 2.9-4.4 6.2-3.9.1 2.5-1.5 3.9-2.5 5.6-.8 1.4-1.4 2.7.5 3.8 2.2 1.2 4.8 2.4 4.1 5.5-.7 3.3-3.5 4.9-6.6 5.4-6 .9-9.3 4.7-11.7 9.8-4.1 8.9-2.9 17.9.2 26.7 1 2.8 2.8 2.9 4 .3 2.3-5.2 9.3-9.9 2.6-16.6-.4-.4-.4-1.3-.4-1.9.1-2 .3-4.2 2.2-5.3 2-1.2 3 .7 4.1 1.7 2.9 2.5 3.7 0 4.7-1.9 6-10.9 12-21.9 18-32.9 1.4-2.6 2.8-5.3 6.7-4.9.2 2.1-1.1 3.5-2 5.1-5.3 9.7-10.7 19.2-15.8 28.9-5.9 11.2-5.8 11.1 5.5 17.5 2.9 1.6 4.3 1.2 5.8-1.8 10.9-21.7 22.2-43.2 34.4-64.2-.6.1-1.5-.1-1.9.3-9.6 8.5-21.7 11.3-33.6 13.5-14.4 2.6-28.8 4-43.8 1.6-11.2-1.8-22.1-4.3-32.7-7.7-17.8-5.6-30.4-18.5-41.7-32.8-1.6 6.6-2.2 13.3-2.3 20.1 0 .8-.1 1.7.9 2.1 1 .3 1.5-.5 2-1.1 1.3-1.9 2.5-3.9 3.8-5.9.7-1 1.2-2.8 2.9-1.7 1.3.9 1.1 2.4.4 3.6-1.6 3.4-3.5 6.8-5.8 9.8zm386.4 52.1c6.1-17.6 12.7-35 19-52.6 5.1-14.1 12.1-27.3 17.9-41.1-3.3-.5-4.3 2.6-6.3 4.2-5.3 4-9.5 10-17.3 9.6-1.3-.1-2.1.9-2 2.3 2.6 2.1.8 4.3-.1 6.3-16.6 35.8-29 73.3-44.9 109.4-8.3 18.7-14.4 38.3-24.1 56.4-10.4 19.4-18.4 39.9-29 59.2-.7 1.2-2.1 2.8-.8 4 1.4 1.4 2.7-.5 3.9-1.2 2.6-1.6 5.1-3.1 7.5-5 4.9-3.9 10.6-7 13.5-13 6.3-12.9 13.4-25.3 19.8-38.1 16.1-32.6 30.9-65.9 42.9-100.4zm-81.6-9.5c-4.4 10.4-9.4 20.6-14.1 30.9-.5 1-1.4 2.3-.7 3.2 1 1.4 2.5.3 3.6-.2 4.2-1.6 8.3-3.4 12.5-5 3-1.2 5-3.1 6.3-6.1 3.1-7.2 6.4-14.3 9.4-21.5 7.1-17.1 15.4-33.6 21.6-51 .6-1.8 1.5-4.5 3.9-3.5 2.5 1 .4 3.2-.1 4.7-4.7 12.7-9.8 25.1-15.5 37.3-4.7 10.1-9 20.4-13.4 30.7-.4 1-1.3 2.2-.3 3.2s2.2.2 3.2-.3c5.3-2.7 10.7-5.4 16-8.2 6.3-3.3 7.3-10 9.7-15.7.5-1.2-.3-2.3-1.3-3-1.6-1.2-2.6-2.7-1.7-4.7.8-1.8 2.3-3.1 4.3-2.8 3.5.5 4.7-1.6 5.6-4.3.8-2.2 1.7-4.3 2.6-6.5 4.1-10.9 10-21 12.7-32.4-5.4.5-10.7 1.2-16.2 1-2.3-.1-4.4-1.3-6.8-.9-6.3 1.1-12.7 1.9-18.9-1-.9-.4-2-.5-2.4.8.7 2-.1 3.8-.6 5.7-4.4 17.3-12.6 33.2-19.4 49.6zm100 12.4c10-24.1 19.6-48.2 21.2-74.6.4-5.7 1.6-11.4 1.2-17.7-2.5 1.2-2.7 2.8-3.4 4.1-12.3 24.9-21.4 51-30.3 77.2-11.2 32.9-24.4 64.8-39.4 96.1-6.3 13.2-12.6 26.5-19.7 39.3-.7 1.2-2.1 2.6-.6 4 .8.8 1.8-.2 2.6-.8 9.9-8.4 20.4-16.3 25.7-28.8 7.4-17.4 16.7-33.9 23.7-51.6 6.1-15.7 12.5-31.5 19-47.2zm-57 35.2c.1-.4.4-.9-.4-1-5.3 3-6.1 8.4-7.5 13.5-.6 2.1-1.5 4.5-4.3 3.8-2.4-.6-2.4-2.9-2.1-5 .9-6.4 2.8-12.3 6.9-17.5 4.5-5.6 9-11.1 12.3-17.6 3.3-6.4 2.7-12.9-.1-19.3-.4-.9-.7-2.1-1.9-2.1s-1.4 1.2-1.8 2.1c-2.6 5.4-3.9 11.1-6.3 16.6-12.7 29.2-26.8 57.7-40.8 86.3-4.7 9.5-10.1 18.8-13 29.1-.9.3-1.4 1-.7 1.7.9 1 1.1-.4 1.5-.8 4.5-4.6 8-9.7 10.4-15.8 1.9-4.7 4.5-9.1 6.8-13.7.6-1.2 1.2-2.6 2.8-2.3 1.8.3 2.3 1.8 2.4 3.4.1 1 0 2-.2 3-6.5 22.5-16.5 42.6-37.5 55.1-7.2 4.3-9.8 11.8-13.8 20 9.8-3.8 18-7.3 25.9-11.6 2.8-1.5 4.5-3.7 5.8-6.4 10.1-20.6 19.8-41.4 30.1-61.9 9.8-19.3 18.3-39.2 25.5-59.6zm-224.6 9.9c-3.9-3.4-7.7-6.8-10.9-11-1.3-1.8-2.7-2-3.8.2-3.4 6.8-9.4 13-5 21.6.6 1.1.5 2.6.7 3.9 0 1.9-.2 3.7-1.2 5.3-.7 1.2-1.6 2.2-3.1 2.2-1.6 0-2.2-1.2-2.7-2.5-.4-1.2.2-3.2-1.4-3.4-2.1-.2-2.2 2.1-2.9 3.5-6.7 12.5-13 25.2-20.2 37.3-6 10.2-11.9 20.4-18 30.6-1.9 3.2-1.8 5.4 1.6 7.3 3.6 2.1 7 4.5 10.4 6.9 2.5 1.7 4 1.1 5.5-1.5 17.6-31.4 33.5-63.7 51.8-94.7 1.3-2.2 1.3-4-.8-5.7zm314.9-141.3c-.7-.4-1.5-.4-2.3-.6-.1.5-.4.9-.4 1.4-1.5 46.4-11.6 90.5-35.5 130.7-10.1 16.9-19.6 34-27.6 52-.7 1.5-1.9 3-1.1 4.9 1.7-.1 2.2-1.3 2.9-2.1 15.1-17.2 28.4-35.8 38.6-56.3 14.8-29.6 26-60.6 33.2-92.9 2.9-13.1 6-26.3 6.7-39.8-4.3 3.5-8.9 5.7-14.5 2.7zM576.6 612.7c-2.3-.4-3 1.1-3.9 2.2-7.4 8.9-15.9 16.5-25.4 23.2-2.5 1.8-4.2 4.2-5.5 7-14.4 30.8-28.7 61.5-43.1 92.3-.4.9-1.2 1.9-.6 2.8.9 1.1 2.2.3 3.2 0 9.6-3.3 16.7-8.5 21.9-18.1 18-33.3 34.3-67.3 50.5-101.4 1.3-2.7 2.6-5.2 2.9-8zm-293 82.1c13.5-23.3 27.4-46.4 39.9-70.4 1.2-2.4 1.2-4.3-.2-6.5-2.4-3.8-4.9-7.5-6.5-11.8-.5-1.3-.5-3.3-2.3-3.4-1.8-.1-2.2 1.8-2.9 3-10.7 18.1-21.3 36.1-32 54.2-1.8 3-3.1 5.9-.4 9.1 1 1.2 1.3 2.8 0 4.1-1.1 1.2-2.4.8-3.7.1-.6-.3-1.2-.6-1.4-.6-1.4-.2-2.1.4-2.5 1.1-2.9 4.5-5.8 8.9-8.7 13.4-.8 1.3-.6 2.6.3 3.7 3.2 3.8 6.4 7.7 9.7 11.4.8.9 2.3 1.9 2.9.6 1.8-3.4 5.8-4.6 7.8-8zm81.1-1.6c7-14.1 14.9-27.8 22.1-41.9.5-.9.8-1.8 1.1-2.5.2-1.9-.9-2.7-2-3.5-1.7-1.1-3.4-2-5-3.2-5.5-4.1-5.5-4.1-9.1 2-16.4 27.7-30.3 56.6-45.9 84.7-7.1 12.8-7.6 9.3 6 16.7 2.4 1.3 3.9.8 5.2-1.6 2.2-3.9 4.7-7.7 6.9-11.6 7.2-12.8 14.1-25.8 20.7-39.1zm-24.6-52.6c0-2.3-.9-3.6-1.9-4.7-2.1-2.4-4.2-4.7-6.3-7.1-3.6-4.1-4.1-4-6.7 1-12.6 24.4-26.7 48-40.7 71.7-1 1.7-1.8 3.7-3.9 4.4-3 1.1-1.9 2.7-.4 4 4 3.5 8.1 6.9 12.1 10.4 2.2 1.9 3.4 1 4.6-1.1 14.5-24.7 29.2-49.3 41.7-75.1.8-1.3 1.3-2.7 1.5-3.5zM472 748.8c9.8-1.1 19-2.9 23.2-13.9 3.1-8 7.4-15.6 11.1-23.4 9.4-20 18.7-40.1 28-60.2.6-1.3 2.1-2.7.8-4.1-1.3-1.3-2.8.1-4 .6-4.7 2.2-9.2 4.7-14 6.6-4.5 1.9-7.4 4.9-9.1 9.4-.8 2-1.9 3.9-2.6 5.9-.9 2.9-4.6 5.9-2.5 8.4 1.8 2.2 5-1.2 7.6-1.9 1.6-.4 3.4-1.1 4.3.9.9 1.9-.4 3.2-1.8 4.1-4 2.8-8.3 5-12.8 6.7-3.1 1.2-5.4 3.2-6.8 6.2-8.1 16.8-16.2 33.6-24.3 50.3-1.4 3.4-.4 4.6 2.9 4.4zm-75.1-206.7c-2.4 4.4-4.9 8.7-7.2 13.1-7.3 14-14.6 28-22 42-1 2-2.3 4.2.9 5.2 5.2 1.8 10.5 3.3 15.7 5 3.2.4 4.1-2 5.2-4 6.7-12.3 13.3-24.6 20.1-36.8 1.8-3.3 1.2-5.4-1.3-7.8-4.4-4.4-7.6-9.6-8-16.2-.1-.9.2-2.2-1-2.6-1.4-.3-1.9 1.2-2.4 2.1zm19.9 72.3c3.4.5 7 .7 10.3 1.7 4.5 1.3 6.8.2 8.9-4.2 7-14.5 14.3-28.9 21.7-43.2 4.2-8.2 1.1-13.5-8.8-13.8-2.5-.2-5.3.4-7 3.5-9.2 17.1-18.4 34.2-27.7 51.3-1.6 3.1-.2 4.2 2.6 4.7zm-21.9 112.9c2.4 2.9 3.9 2.4 5.5-.6 6.5-12.4 13-24.7 19.6-37.1 1.5-2.8.8-4.6-1.9-6-2.5-1.3-4.8-3-7.1-4.6-1.3-1-1.9-2.4-1-3.9 1-1.7 2.4-1.3 3.9-.6 2.1 1 4.2 2.1 6.4 2.9 1.9.7 4.2 2.7 5.9.2 2.3-3.4 5.1-6.6 5.7-10.9 0-.4-.8-1.1-1.3-1.3-4.9-1.6-9.9-3.1-14.7-4.6-1.7-.3-2.5.8-3.2 2-9 16.5-18 33-27.1 49.6-1.2 2.2-.8 4 1 5.8 2.8 2.8 5.6 5.9 8.3 9.1zm119.6-111.1c3.8-.8 7.9-1.5 11.9-2.5 1.8-.4 3.3-1.6 4.1-3.4 7.8-16.2 15.4-32.5 22.2-49.1 1.2-3-.2-3.6-2.8-2.9-3.3.8-6.6.9-9.9 0-3.4-.9-5.2.1-6.4 3.5-2.7 7.2-5.7 14.2-8.7 21.2-4.1 9.6-8.3 19.2-12.5 28.9-.8 1.8-2.4 4.2 2.1 4.3zm-108.2 40.3c-3.7-1.5-7.4-3.1-10.9-5-2.7-1.5-3.9-.3-5 1.9-6.1 12-12.3 24-18.4 36-.9 1.7-1.3 3.2-.2 5.1 2.6 4.4 5 9 7.5 13.5.4.7.9 1.3 1.3 1.9 1.9-.1 2.3-1.6 2.9-2.7 8.3-15 16.5-30 24.9-44.9 1.6-3.1.9-4.6-2.1-5.8zm19 85.9c4.8 1.3 9.7 2.4 13.6 3.3 2.9.4 4-.6 4.8-2.3 6.8-14.6 13.7-29.2 20.5-43.8 1-2.2.5-3.5-2.1-3.6-3.8-.2-7.6-.5-11.4-.8-2.2-.2-3.8.7-4.9 2.7l-21.6 40.5c-.9 1.7-1.2 3.4 1.1 4zm-203.4-178c2.9-5.2 8.3-9.4 8.2-15.7-.1-12.5.4-24.9 1.7-37.2-1.9 1.2-2.9 3.1-3.7 5.1-.1.8-.1 1.7-.5 2.4-7.9 11.9-15.9 23.9-25.2 34.8-1.4 1.6-2.7 2.8-1.9 5.1 2.3 7.1 4.5 14.3 6.8 21.4.3 1 .5 2.5 1.8 2.7 1.6.2 2.1-1.4 2.8-2.5 3.4-5.3 6.9-10.6 10-16.1zm397.3-41.2c-3.7 11.4-8.8 22.2-13.7 33.2-2.8 6.4-4.4 12.1 2.1 17.1.6.5.9 1.4 1.4 2.1.7 1.1.9 2.9 2.4 2.9 1.8-.1 2-2 2.5-3.3 5.4-13.1 10.7-26.2 16-39.2 3.3-8.1 6.8-16.2 10.1-24.3-.5 0-1 0-1.4.2-6 2.8-11.5 6.9-18.8 4.8-.9-.3-1.9.4-2 1.7 3.9.7 2 3 1.4 4.8zM413.8 737.8c3.2 1.3 5.1 1 6.8-2.2 6.6-12.7 13.4-25.3 20.1-38 .4-.7.7-1.5 1-2.2-.1-1.8-1.5-2.1-2.7-2.6-3-1.1-6-2-8.9-3.3-3.5-1.6-5.4-.6-7.1 2.8-4.9 9.8-9.9 19.6-15.2 29.3-6.3 11.5-6.4 11.4 6 16.2zm44.6 11.1c3.8.6 5.1-2.4 6.4-5.1 6.4-13.2 12.8-26.3 18.9-39.6 1.6-3.4 5.5-7.4 3.5-10.2-1.8-2.5-6.7.9-10.3.9-4.4.1-6.7 2.5-8.5 6.3-5.9 12.1-11.5 24.3-16.9 36.6-4.6 10.4-4.4 10.7 6.9 11.1zm-61.2-138.3c1.9.4 3.9.9 5.8 1.5 3.5 1.1 5.5-.1 7.2-3.3 5.2-10 10.7-19.9 16-29.9 3.1-5.9 6.2-11.9 9.3-18-2.3-.9-3.3.5-4.6 1.2-3.6 1.8-7.4 3.4-11.4 2.8-3.3-.5-4.8.9-6.2 3.6-6.4 11.9-12.9 23.7-19.3 35.5-2.8 4.9-2.6 5.2 3.2 6.6zm53.8 8.1c4.9 1.6 8-1 10.1-6.4 2.3-5.9 5.1-11.6 8.1-17.1 2.2-4.1 2-7.6-.3-11.6-1.9-3.3-2.9-7-4.3-10.6-.5-1.2-.2-3.1-1.8-3.3-1.8-.2-2.2 1.7-2.8 3-5.8 11.4-11.7 22.8-17.4 34.3-5.4 11.2-5.3 11.3 8.4 11.7zm-82.2 94.6c-1.6-2.1-1.7-6.1-4.2-6.4-2.9-.3-3.2 3.7-4.5 5.9-6.2 10.4-12.3 20.9-18.3 31.4-1 1.7-3.3 4-.6 5.6 4.1 2.4 8.6 4.2 12.3 5.9 2.9.2 3.7-1.4 4.5-2.9 3.3-5.9 6.1-12.3 10.1-17.8 5.4-7.4 6.6-14.3.7-21.7zm21.1 26.7c-3-3.3-6-6.7-8.9-10.1-2-2.3-3.8-2.5-5.4.4-4.6 8.3-9.1 16.6-13.7 24.9-.8 1.4-1.2 3.1.7 3.7 5.3 1.9 10.7 3.5 15.2 5 2.4.4 2.9-.5 3.4-1.6 3-5.9 6-11.9 9-17.8 1-1.6 1.1-3-.3-4.5zM242.4 617.6c-2.2-8.5-4.2-16.9-6.6-25.2-.8-2.8-2.4-1.3-3.4.2-2 3-4 6.1-6 9.2-7.6 12.1-7.7 12.1-1.3 25 1.5 3.1 2.1 8.2 5.2 8.5 3.6.3 4.8-4.8 6.8-7.7 2.2-3.3 5-6.1 5.3-10zm-9.3-36.8c-.6-5.5-1.2-10.9-1.8-16.4-.1-1.3.1-3.1-1.4-3.4-1.5-.4-2.1 1.4-2.8 2.4-5.2 8.1-10.5 16.2-15.2 24.6-1.3 2.3-1.4 4.3-.5 6.6 1.3 3.1 2.5 6.1 3.7 9.2 1.2 3.2 2.8 3.5 4.7.5 3.9-6.2 7.9-12.3 11.8-18.5 1.1-1.5 1.8-3.1 1.5-5zm-30.6-33.1c5.5-7.9 11.1-15.7 16.4-23.8 1.3-2 3.7-3.4 3.5-6.3-6.3.8-12.6 2.7-18.4-1.9-.1-.1-.6.5-1 .8 1.9 3.4-.8 5.8-2.7 7.1-8.2 5.8-7.1 12.9-3.9 20.6.3.8.3 1.6.6 2.4.4 1.4.2 3.4 1.9 3.8 2 .7 2.7-1.4 3.6-2.7zm51.9 98.7c-.4-1-.8-2.1-1.3-3.2-1.7-3.9-3.4-7.9-5.3-11.8-1.1-2.1-1.1-5.7-3.8-5.8-2.3-.1-2.7 3.5-4.3 5-7.6 7.4-6.7 14.7-1.2 23.2 5.8 9 5.2 9.3 11.1.7 1.8-2.5 3.8-4.9 4.8-8.1zm235.8-27.7c3.6-.4 7.3-.8 10.9-.9 2.9-.1 4.5-1.5 5.6-4.1 2.4-5.6 5.1-11.2 7.6-16.8 1.6-3.7 3.7-7.3 3.7-11.7-3.6 2.5-6.2 6-9.7 8.5-3.7 2.6-7.6 4.7-11.7 6.6-.9.4-1.6 1.6-2.1 2.6-2.2 4.1-4.2 8.3-6.4 12.4-1.4 2.5-1 3.7 2.1 3.4zm-80.7 130.7c-3.2-1.2-6.6-2.3-9.7-3.8-3.1-1.5-4.9-.8-6.4 2.1-2.7 5.1-5.5 10.2-8.3 15.3-1 1.8-1.3 3.1 1.1 3.7 4.2 1.1 8.3 2.1 12.5 3.2 1.5 0 2.7-.4 3.5-1.6 3-5 6-9.9 8.9-14.9 1-2 .3-3.2-1.6-4zm-144.7-89c-.7-1.5-1.8-2.8-2.7-4.2-4.1-5.8-4.1-5.8-8.3.2-1.9 2.7-3.6 5.6-5.3 8.4-.7 1.1-1.6 2.4-1.1 3.7 2.4 5.7 6.5 10.3 10.5 14.9.2.2.6.3 1 .4.4-.2 1-.3 1.2-.6 3.3-4.6 6.8-9.1 8.8-14.4 1.4-3.4-2.7-5.5-4.1-8.4zM472.2 619c3.2-.7 7.9 1.7 10.5-2.8 2.3-4 4.3-8.3 6.4-12.4 1.2-2.3.7-3.8-2-4.3-3.3-.7-6.5-1.7-8.9-4.2-2.5-2.5-3.9-1.5-5.1 1.2-2.1 4.7-4.1 9.5-6.4 14.1-4 8.2-4 8.2 5.5 8.4zm-39.8 137.7c-4.3-1.1-8.7-2.1-13-3.3-1.7-.5-2.9.1-3.8 1.6l-7.5 12.9c-.9 1.5-1 3 1.1 3.4 5.1.9 10.1 1.7 15.2 2.6 2.4.3 4.2-.6 5.4-2.8 1.7-3.1 3.3-6.1 5.1-9.1 1.8-3.1.5-4.5-2.5-5.3zm48.3-72.3c4.8-1.1 11.2.4 14.7-4.6 3.4-4.8 5.4-10.6 7.9-16 .6-1.2.6-3.3-1.3-2.6-5.5 2-12.2 2.1-16.1 6.8-3.2 3.9-5.1 8.9-7.5 13.4-1 2-.7 3.3 2.3 3zm-28-16.3c-3.5-.3-7-.6-10.1-.9-2.5.1-4.9-1-6.3 1.4-1.9 3.1-3.7 6.3-5.5 9.5-1 1.8-.3 2.9 1.5 3.3 4.2 1.1 8.4 2.2 12.6 3.1 2 .4 3.7-.4 4.6-2.2 1.9-3.3 3.6-6.7 5.4-10.1 1.3-2.5.5-3.8-2.2-4.1zm25.5-.3c-5.1.1-10.3.4-15.3 1.4-3.5.7-3.8 4.7-5.3 7.4-5 9.4-4.8 9.6 6.2 9.5 2.5-.5 6.5 1.1 8.6-2.9 2.2-4.1 4.3-8.2 6.4-12.3.6-1.2 1.5-3.2-.6-3.1zm-142.6-57.1c-1.1 2.1-2.1 4.1-.4 6.4 2.7 3.7 5.3 7.6 8 11.3.7.9 1.6 2.4 2.6 1 2.9-4 5.1-8.4 7-12.8-.7-3.2-3-5.1-4.7-7.3-7.1-8.7-7.1-8.7-12.5 1.4zm137.3 150.1c-.5-.1-1 .1-2.7.2-6.6-1-12.7.7-15.2 9.4-.9 3.2-.9 4.4 2.6 4.1 5.1-.5 10.2-1 15.3-1.8 3.3-.5 10.2-8.7 8.9-11.1-2.1-3.7-5.9-.4-8.9-.8zm31.8-9.5c-2.3.9-4.7 2.3-7.3 2.7-7.6 1.1-10.6 6.6-13 12.8-.6 1.5-1.7 3.3 1.6 3.1 8.6-.7 17.8-8.1 20.1-16.3.4-1.3.7-2.4-1.4-2.3zm-59 8c-2.8-.4-4.5.4-5.7 2.8l-3.9 7.5c-.7 1.4-2.5 2.8-1.4 4.4 1 1.5 3.1.6 4.7.7h2.7c5.5 1.6 7.4-2.2 8.8-7.8 1.6-6.7 2-6.4-5.2-7.6zM195.1 524.6c1.8-2.5 3.4-5.2 5-7.9-3.4-2.9-7.4-5.1-10.1-9-1.4-2.1-1-5.2-3.9-6.4 1.7 7.6 3.4 15.1 5.2 22.7.8 3 2.4 2.6 3.8.6zm369.8 1.9c2.5 0 2.4-4.2 4.2-6-2.9-1.7-6.3-1.3-9.4-1.7.2.6.3 1.3.7 1.8 1.8 1.8 2.1 5.9 4.5 5.9zm-33.4 191.1c-2.3.9-2.8 2.9-2.8 5.3 1.9-1.1 4-2 4.3-4.4 0-.9-.9-1.1-1.5-.9z" fill="#C2C2C2"/><path d="M183 547.1c-4.9-21.6-9.2-43.3-16.6-64.2-6.1-17.2-13.3-33.4-28.9-44.3-2.4-1.7-4.7-3.8-6.2-6.5-1.6-2.9-2.5-5.9-.4-8.9 2-2.9 4.8-3.9 8.3-3.5 4.1.4 7.7 2.1 10.9 4.7 3.1 2.5 5.9 5.3 9.5 8.5.6-9.2-1.7-16.2-9.3-20.8-3.6-2.2-7.2-4.1-11.2-5.4-8.5-2.6-16 0-20 6.8-5 8.6-3.5 16.2 5.4 23.7 11.2 9.5 21.8 19.3 28.1 33.2 8.1 18 10.7 37 13 56.2.7 5.8 2.1 11.5 4 17 2.2 6.5 6.5 11.5 12.2 15.4 1.1.7 2.4 1.5 3.7.6 1.2-.9.4-2.2.2-3.2-1-3.2-2-6.2-2.7-9.3zm557.7-162.3c0-1.3.2-3.5 0-5.6-1-10.8-10.8-22.1-20.5-24-2.9-.6-4.5-.2-4.4 3.3.1 3.8-.1 7.7-.2 11.5 0 1.9-.1 3.4 2.7 3.7 9.4 1.2 14.2 8.7 11.6 18-1.5 5.4-4.2 10.1-6.9 14.9-5 9.1-9.2 18.7-10.7 28.8-1.1 7.3-.5 14.9-1.3 22.4-1.9 16.5-1.5 33.2-5.1 49.5-.4 1.7-2.1 4.5.3 5.2 2.1.7 2.9-2.3 3.6-4.1 4.9-12.3 5.8-25.3 6.5-38.2 1.1-21.8 5.8-42.5 18.1-61 4.6-7 7.2-14.8 6.3-24.4zm-192 165c4.2-2.4 7.1-6.1 6.9-13.1 0-6.5-7.9-14.3-16.1-14.4-2.7 0-3 1.6-3.1 3.6-.4 6.3-.8 12.6-2.4 18.8-.4 1.6-.6 3.4 1.3 4.4 4.4 2.3 9 3.3 13.4.7zm-29.8 34.3c0-.1-.1-.2-.1-.3-.1-.1-.2 0-.3 0-.1.1-.2.2-.1.3.1.5.3.5.5 0zm184.2-177.6c-.1-1.6-.2-3.3-.3-4.9 1.1-6.4-.1-12.9-.1-19.3 0-.7-.6-1.1-1.4-1.1 0-2.6.3-5.3-.1-7.9-2-11.9-4.2-23.8-6.4-35.6.5-.9.5-1.6-.4-2.1.3-1.2-.1-2.3-.8-3.4.1-.2 0-.4-.2-.5-.2-1-.5-2-.7-3 .5-1.6.5-2.9-1.5-3.3-.4-7-2.7-13.6-4.7-20.2-6.7-22.2-13.7-44.4-20.6-66.6.6-1.1-.1-1.9-.5-2.8-5.8-14-11.6-28.1-17.5-42.1-1.8-4.4-2.9-9.1-6-12.9-.6-1.1-1.1-2.2-1.7-3.3-.3-2.7-1.5-4.8-3.6-6.5.1-.3-.1-.4-.3-.5.1-1.3-.5-2.1-1.8-2.4.1-.3-.1-.5-.4-.5.2-1.3-.4-2.1-1.6-2.5-.5-1.1-1-2.3-1.6-3.4.4-1.3-.2-2.1-1.3-2.6-.5-.8-.9-1.6-1.4-2.5.2-1.3-.3-2.1-1.5-2.6l-1.5-2.4c.2-1.3-.4-2.1-1.6-2.6.1-.3-.1-.4-.3-.5.2-1.3-.4-2.1-1.6-2.6-.5-1.4-1.2-2.6-2.4-3.5.1-1.3-.5-2.1-1.7-2.5-.4-.5-.8-1.1-1.2-1.6.1-1.3-.6-2.1-1.8-2.4-6.6-10.1-17.7-14.1-27.2-20.4-.7-.5-2-.2-3-.3-1.2-2.2-3.7-3.9-5.4-2.7-1.5 1.1.7 2.5 2.3 3.1 9.8 11.3 20.2 22.1 30.8 32.8 4.9 5 9.7 10.1 13.2 16.2 1.9 3.3 4.5 7.1 1 10.4-3.9 3.8-7.1-.3-9.9-2.5-6.2-4.8-11.9-10.2-18.1-14.9-22.1-16.3-44.9-31.5-66.6-48.4-1.2-1-2.5-2.6-4.4-2-.1-.2-.3-.3-.4-.5-.1.3-.2.5-.2.8-.1 0-.1.1-.2.1h.1c3.3 5.8 6.4 11.7 9.9 17.3 13.4 20.9 25.6 42.4 38.4 63.7 1.1 1.9 2.1 3.8 2.3 6 .2 2.6.9 5.6-2.1 7.1s-5.1-.5-6.9-2.5c-4-4.4-7.7-9.2-12-13.3-19.5-18.7-37.1-39.1-57.4-57-10.9-9.5-21-19.9-30.7-30.6-3.3-3.6-4.8-3-6.1 1.7-6.2 22.8-9.9 46.1-15.4 69-1.9 7.9-3.4 16-6.8 23.5-1.1 2.4-2.9 4.2-5.8 3.9-3-.3-4.1-2.5-4.5-5.2-2.8-18.9-7.6-37.5-9.6-56.5-1.2-11.3-3.8-22.4-6.9-33.8-6 6.7-10.8 13.6-15.8 20.4-24.2 32.4-50 63.5-77.9 92.8-2 2.1-4.2 3.4-7 1.7-3-1.8-3-4.6-1.8-7.4 1.3-3.1 3-6 4.2-9.1 8.2-21.8 16.4-43.6 24.4-65.4 1.4-3.9 2.2-8 3.5-12.6-3.2 1.3-4.9 3.1-6.5 5.1-2 1.3-3.9 2.8-4.9 5.1-2.1 2.3-4.1 4.6-6.2 6.8-1.3.7-2.4 1.7-2.8 3.2-1.1 1.3-2.1 2.6-3.2 3.8-1.1.3-1.6 1.1-1.8 2.2-.7.9-1.5 1.8-2.2 2.8-1 .4-1.7 1.1-1.9 2.2-1.1.3-1.7 1-1.8 2.1-4.7 5.3-9.5 10.6-14.2 15.8-1.6.5-2.4 1.6-2.8 3.2-1.1 1.2-2.2 2.5-3.3 3.7-1.2.3-1.7 1.1-1.8 2.2l-2.3 2.7c-1.4.7-2.3 1.8-2.7 3.3-.8.9-1.5 1.8-2.3 2.7-1.4.7-2.4 1.7-2.7 3.3-1.1 1.3-2.1 2.5-3.2 3.8-1.8.9-3.1 2.2-3.6 4.2-.8.9-1.6 1.8-2.5 2.7-1.8 1-3 2.4-3.6 4.3-1.1 1.2-2.2 2.5-3.4 3.7-1.6.6-2.3 1.7-2.7 3.3-.5.5-1 1.1-1.4 1.6-1.7 1-3 2.5-3.6 4.4l-2.4 2.7c-1.6 1.1-3.1 2.3-3.6 4.3-2.7 2.7-5.5 5.4-8.2 8.1-2.2.7-4.2 1.7-6 3.2-.7 0-1.4-.1-2.1-.1-.5-.7-1.2-1.2-2.1-1.1l-.2-.1c-1.4-2.8-1.9-5.5.1-8.4 8.5-12.3 16.9-24.7 25.3-37.1 8.4-12.5 16.7-25 25.5-38.3-3.2.9-5.3 1.6-6.9 3.4-.4 0-.6.2-.7.5-.7.7-2 .3-2.3 1.6-.3 0-.6.1-.7.4-1.1.1-1.8.6-2.2 1.6-3.3 2.4-7.3 3.7-9.9 7-1.5.5-2.4 1.6-2.8 3.1-2.1 2.3-4.1 4.6-6.2 6.8-1.5.6-2.4 1.6-2.8 3.1-2 2.3-4.1 4.6-6.1 6.9-1.1.3-1.7 1-1.8 2.1-1.5 2.2-2.9 4.4-4.4 6.6-2.6 3.1-4.2 6.6-5.3 10.5-1.3 2.5-2.5 5-3.8 7.5-2.2 2.4-3.6 5.3-4.1 8.5-.3.8-.7 1.6-1 2.3 0 .5-.1 1.1-.1 1.6.1-.5.1-1.1.1-1.6-2 3.7-3.4 7.5-4.1 11.6l-.9 2.4c-.9.7-1.2 1.5-1 2.6-.2.6-.3 1.3-.5 1.9-3.7 7.7-6.3 15.7-7.7 24.1-.1.6-.2 1.3-.3 1.9-1.8 3.1-2.4 6.6-2.7 10.1-.1.6-.2 1.3-.2 1.9-.7.9-1.1 1.9-.7 3.1.4-.2.7-.4.9-.6-.2.2-.5.4-.9.6-.1.6-.2 1.3-.3 1.9.1.2.3.3.4.5-.1-.2-.2-.3-.4-.5-.7.9-1.1 1.9-.7 3.1-.1.6-.2 1.3-.3 1.9-3.1 9.7-5.3 19.6-6.4 29.6-3.1 29-2.3 58.1-2 87.2.1 5.8.2 11.8 2.6 17.1 1.7 3.7 1.2 6.1-1.4 8.9-4.4 4.6-7.4 10-8.3 16.6 2-1.1 3.5-2.4 4.4-4.2 1.3-.7 2.5-1.3 3.8-2 1.1.1 2.2.3 3.2.4.2.3.4.4.7.4 2.2 2.7 2.7 5.7 1.6 9l-1.5 1.8c-1.4.7-2.5 1.5-2.8 3.1-1.2.9-1.9 2.2-2.4 3.6-4.1 5.2-5.4 11.7-8.6 17.4-.3.1-.4.3-.4.6-1.8 1.1-2.7 2.4-1.1 4.4l.5 2.9c-.6 1.2-.7 2.2.5 3.1.1.6.3 1.3.4 1.9-.5.9-.4 1.6.5 2.1 0 2.1.4 4.1 1.4 5.9 2.9 1.1 2.4 4.3 3.9 6.4 2.6 3.9 6.6 6.1 10.1 9 1 0 1.9-.1 2.9-.1.3-.3.9-.9 1-.8 5.7 4.5 12.1 2.6 18.4 1.9l5.7-1.2c.8-2 1.9-3.9 3.7-5.1l.6-3.9c.9-.6.9-1.3.4-2.1.4-1.8.8-3.5 1.2-5.3 1.5-6.8 3-13.6 7.2-19.4 1.6 0 3.2-.1 4.8-.1 3.5 3.4.7 7.2.7 10.9-1.2 1.6-1 3.3-.5 5.1-1.2 3.2-1.3 6.6-1.6 9.9 11.3 14.3 23.9 27.2 41.7 32.8 10.6 3.4 21.5 5.9 32.7 7.7 15 2.4 29.4 1 43.8-1.6 11.9-2.2 24-5 33.6-13.5.4-.3 1.2-.2 1.9-.3 1.8-1.3 3.3-2.9 3.9-5.1 1.9-2.4 3.3-5 4-8 .3 0 .4-.2.3-.5 1.5-.7 2.6-1.7 2.7-3.5 1.7-1.6 3.4-3.2 5-4.8 1.3 0 2.1-.6 2.4-1.9.3.1.5-.1.5-.4 10.5-5.1 21.1-4.7 31.8-.8.7 1.9 1.8 3.8.2 5.8h-2c-2.2-1.5-4.4-2.3-7-1-.6.1-1.3.1-1.9.2-5.3-.4-10.4.2-13.9 4.9.7 0 1.4-.2 2-.4-.7.2-1.3.3-2 .4-.7.7-1.4 1.3-2.1 2-2.2 1-3.8 2.4-4.1 4.9-1 .9-1.6 2-1.8 3.3-1.8 1.6-2 3.6-1.8 5.8-.1.6-.3 1.3-.4 1.9-1.1.9-1.1 1.9-.5 3.1-.6 1.6-.6 3.2-.1 4.8-.5 2.2.7 3.5 2.4 4.6.1.7.5 1.3 1.2 1.6 3.5 4.1 6.6 2.1 9.7-.7.3.1.4 0 .5-.3 1.4.2 2.1-.5 2.4-1.8.3.1.5 0 .5-.3 1.3.2 2.2-.3 2.6-1.5.3.1.4 0 .5-.3 4-1.4 8-2.7 12-4.1.6-.1 1.3-.2 1.9-.3 1.4.5 2.8.6 4.1 0 .9.5 1.9.5 2.9.2 3.3 1.4 6.6 2.7 10 4.1 3.3 3.1 5.8 6.9 8 10.9-.3 1.2.2 2.1 1.2 2.7.7 2.1 1.3 4.2 2 6.2-.5.9-.3 1.6.6 2.1.1.6.3 1.3.4 1.9 0 3.5 1.3 6.7 3 9.8.2 1.3.7 2.4 1.7 3.3.1 1.9.9 3.1 3 3.1.5.2.9.5 1.4.7 5.5 3.6 9.3 3.7 13.2.5 1.8-.8 3-2.2 3.8-3.9 2.4-1.1 3.9-2.9 4.8-5.4.4-.5.8-1.1 1.2-1.6 1.3-.3 1.9-1.1 1.7-2.5.3-.1.4-.2.3-.5 1.2-.4 1.9-1.2 1.7-2.5.3 0 .4-.2.3-.5 4.6-6.2 7.6-12.9 8.3-20.6.2-.6.3-1.3.5-1.9 2-3.1 2.6-6.5 2.5-10.1.1-.6.2-1.3.3-1.9 1.2-1.2 1.3-2.6.8-4.1.1-.6.2-1.3.3-1.9 1.1-1.6 1.3-3.3.7-5.1.1-.6.2-1.3.3-1.9 1.2-1.2 1.3-2.6.7-4.1.1-1.3.2-2.6.4-3.9 1.3-1.6 1.3-3.3.7-5.1.1-1.6.3-3.3.4-4.9 1.2-7 1.6-14 0-21 .3-2.7.3-5.3-.4-7.9.5-1.8.5-3.5-.6-5.1-.1-1.3-.3-2.6-.4-3.9.6-1.5.6-2.9-.6-4.1-.1-1.3-.3-2.6-.4-3.9.7-1.5.5-2.9-.6-4.1-.1-.6-.2-1.3-.3-1.9.5-2.6-.2-4.9-1.6-7.1-.1-.6-.3-1.3-.4-1.9.5-.9.3-1.6-.6-2.1l-.3-1.9c.5-.9.4-1.6-.5-2.1-.1-.6-.3-1.3-.4-1.9-.9-6.9-3-13.5-6-19.8-.3-.8-.6-1.5-.9-2.3-.4-1.7-.7-3.4-1.1-5.2.3-.2.4-.5.4-.8 1.3 0 2.5.1 3.8.1.4.6.7 1.2 1.1 1.8-.2 1.3.3 2.1 1.5 2.6 0 .3.1.4.4.5 1.4 3 2.8 5.9 4.1 8.9.5 1.6.9 3.3 1.4 4.9-.5 1.2-.3 2.2.6 3.1.2 1.3.3 2.6.5 3.9-.5.9-.4 1.6.5 2.1.2 1 .3 1.9.5 2.9-.5.9-.4 1.6.5 2.1.5 1.6.9 3.3 1.4 4.9-.5.9-.3 1.6.6 2.1.1.6.3 1.3.4 1.9-.5.9-.3 1.6.5 2.1.1.6.2 1.3.4 1.9l.6.3-.6-.3c-.3 2.1.5 3.6 2.3 4.6 1.5 2.4 3.4 4.4 5.8 6 .1 1 .8 1.4 1.5 1.8 12.3 6.6 24.9 10.6 39.2 8.3 5.2-.8 10.4-3.5 16-1.7.2 2-1 3.5-2.1 5-1.8.1-2.9 1-3.5 2.6-.5.4-1 .8-1.6 1.2-1.3-.1-2.1.5-2.5 1.7-.3-.1-.4 0-.5.3-8.3 1.7-16.5 2.7-25 1.1-4.3-.8-8.4-2.9-12.9-3-.1-.3-.2-.4-.5-.3-1.1-2.5-4-2.6-5.8-4.2-1.5-1.3-2.9-4.3-4.9-3.1-1.9 1.2-.4 4.2-.5 6.4 0 .4.4.8.6 1.2.1 4.3.3 8.6.4 12.9-.2 5.7-.4 11.4-.5 17.1 0 2.1.7 3.6 3.2 2h5c3.6 1.4 7.3 2.8 10.9 4.2 1.2 1 2.5 2.1 3.7 3.1 3.2.5 6.5.1 9.4 1.7.7 0 1.3 0 2 .1.5-1.3 1.5-1.2 2.4-.8 6.2 2.9 12.5 2.1 18.9 1 2.4-.4 4.5.8 6.8.9 5.4.1 10.8-.5 16.2-1l2.7-2.4c.1-1.3 1-2 2-1.7 7.2 2.1 12.8-2 18.8-4.8.4-.2.9-.1 1.4-.2 1.3-1.2 2.5-2.4 3.8-3.7-.1-1.4.7-2.4 2-2.3 7.8.4 12-5.6 17.3-9.6 2-1.5 3-4.6 6.3-4.2 1-.9 2-1.9 2.9-2.8 3.1-3.3 1.7-6.9.9-10.6.5-5.6-1.4-11.2.8-16.7 1.3 0 2.5 0 3.8-.1 0 .3.1.6.4.7-.4.9-.2 1.6.7 2.1l.3 1.9c-.6 1.2-.6 2.3.6 3.1.1.6.2 1.3.3 1.9.6.4 1 .7 1.3 1.1-.3-.4-.7-.8-1.3-1.1-.6 1.8-.6 3.5.7 5.1.1 5-.1 10.1.9 15 .8.2 1.6.2 2.3.6 5.6 3 10.2.8 14.6-2.7.1-3.2.3-6.5.4-9.7 3.3-2.6 1.7-6.1 1.6-9.3.4-.9.8-1.9.3-2.9 1.5-3 .9-6 .6-9.1.1-.6.1-1.3.2-1.9 1.2-2.9 1.4-6 .8-9.1.4-5 .8-9.9.4-14.9 1.3-7.7 1.1-16.3-.3-25zm-457.8 36.1c.3-1.5 1.5-2.2 3-2 7.9.9 15.8 2.3 23.2 5.6 1.6.7 2.7 2.1 2.2 4s-2 2.5-4.7 2.3c-2.3-.7-5.3-1.6-8.3-2.6-4.3-1.4-8.5-2.7-12.8-4.1-1.5-.6-2.9-1.3-2.6-3.2zm27.9 22c-6.1 2.4-12.6 2.9-18.9 4.1-1.6.3-3.1-.2-3.4-2.1-.4-2 .9-3.1 2.6-3.7 5.9-2.3 12-3.7 18-4.2 2.1-.1 3.8.1 4.3 2.2.4 2-.9 3.1-2.6 3.7zm26.2-6.5c-1.3 1.7-3.1 4.1-5.8 2.1-2.6-2-3.8-4.8-1.5-7.8 2.5-3.3 5.2-6.5 8-9.6 7.8-8.6 15.4-17.5 27.6-20.3 5.1-1.2 10.2-.9 15.4-1.2 16-.9 28.6 5.6 38.5 17.9 1.3 1.6 2.4 3.5.6 5.4-1.8 1.9-3.6.5-5.4-.5-23.8-12.8-46.5-11.2-68.2 5-3.6 2.6-6.6 5.6-9.2 9zm72.8 15.3c-11.1 9.3-23.9 14-39.9 14.2-2.6-.3-6.5-.6-10.5-1.1-1.9-.2-3.8-.9-3.7-3.2.1-2.5 2.1-2.6 4-2.5 16.9.8 32.1-4 46.2-13.1 1.9-1.2 4.2-3.4 6.1-1 2.4 2.7-.2 5.1-2.2 6.7zm58.6-45.8c-4 19.8-15.8 35.1-28.9 49.3-15.7 17.1-34.9 28.6-58.4 32-1.3.2-2.6.3-3.3.4-12-.9-23.4-1.5-32.9-9-1.4-1.1-3-2-2-4 .9-1.8 2.6-1.2 4-.7 16.6 5.5 32.3 2.7 48-4.4 24.4-11.1 44.8-26.8 59.6-49.3 3.4-5.1 5.9-10.8 8.8-16.2.9-1.6 1.6-3.8 3.9-3 2.3.9 1.6 3.1 1.2 4.9zm2.6-35.4c-7 1.6-13.9.4-20.7-1.4-35.5-9.3-71-8.8-106.7-.4-17.2 4-32.5 11.4-46.9 21.3-3.9 2.7-8.4 4.5-12 7.9-1.4 1.3-3.3 1.8-5 .4-1.8-1.4-2.1-3.3-1.4-5.4.2-.6.5-1.3.9-1.8 8.4-11.4 16.1-23.2 24.9-34.3 8.9-11.3 21.3-16.2 34.2-20.1 20.6-6.3 41.5-11 61.3-10.4 18.9-1.1 35.2 1.3 50.7 8.4 6.1 2.8 11.4 6.7 15.8 11.9 2.8 3.4 4 7.2 4.3 11.5.1 1.3-1.1 3.4 1.3 3.6 1.7.1 2.3-1.7 2.9-3 .9-2.1.8-4.2.5-6.4-.3-1.6-.2-3.2 1.7-3.6 1.8-.4 2.7 1 3.4 2.3 3.6 7-1.3 17.7-9.2 19.5zm165.2 67.2c-8.9 1.4-17.5 4-27.4 4.2-1.5-.3-3.8-.6-6-1.1-2.1-.4-4-1.3-3.4-3.9.5-2.4 2.6-3.1 4.7-2.7 7.4 1.3 14.6.1 21.9-.6 3.3-.3 6.6-1.2 9.9-1.4 1.9-.1 4.5-.1 4.7 2.6 0 2.6-2.4 2.6-4.4 2.9zm29.3-7.7c-1.9 1.2-3.1-.2-4.3-1.4-7.3-7.7-17-10.9-26.8-13.5-13.7-3.7-26.6-1.2-38.9 5.7-1.8 1-3.8 2.9-5.7.4-1.6-2.1-.7-4.4.6-6.5 5.3-8.4 21.6-17.6 31.7-17.7 16 1.2 31 5.3 40.8 20.2 1.7 2.5 2.9 5.2 3.5 8.2.4 1.7.8 3.5-.9 4.6zm6.4-40.4c-3.5-5.1-9.5-7.1-14.4-10.4-22.9-15.1-47.5-13.7-72.6-7.1-5.9 1.6-11.6 4.2-18.3 4.3-11.2 1.8-16.5-10.4-14.5-20 .3-1.5 1-2.9 2.7-3.3 1.8-.4 2.8.8 3.3 2.4 1 3 2.1 2 3.7.3 15.3-16.9 34.6-21.8 56.5-19.1 13.8 1.7 27.1 5.1 40 10.3 4.7 1.9 8.3 4.6 10.7 9.1 5.1 9.5 10.6 18.9 11.8 30 .3 2.9.7 5.9-2.7 7.2-3.5 1.3-4.6-1.5-6.2-3.7zm25.8 54c-.6 1.9-2.2 2.3-4.5 2.2-4.4-.9-9.3-1.5-13.8-3.8-1.9-1-3.5-2.3-2.5-4.7.8-2.2 2.9-2.1 4.7-1.6 4.6 1.3 9.2 2.9 13.8 4.3 1.6.5 2.9 1.5 2.3 3.6zm3-16.7c-4.4.8-8.9 1.3-13.3 1.9-2.7-1.4-7.8 1.3-7.8-4 0-5 4.7-3.5 7.7-3.8 4-.4 8-.5 11.9-.8 2-.2 3.8.1 4.3 2.3.6 2.3-.6 4-2.8 4.4zM562.7 611.4c-1.4.4-2.9.9-4.2 1.5-14.1 6.8-29.2 10.7-44.3 14.4-8.6 2.1-17.6 2.3-26.2 5-.7.1-1.3.1-2 .2-7.4.3-14.8.2-22 2-1-.5-2-.4-3 .1-7.3-.4-14.7-.7-22-1.1-1.3-.5-2.6-.6-4-.2-6.9-1.8-13.9-3.4-21.1-3.7-.6-.1-1.3-.3-1.9-.4-1.2-1.5-3-1.3-4.5-1.6-11.2-1.9-21.8-5.6-32.3-9.8-2.8-1.1-6.7-4.8-8.2-2-1.5 2.8 3.8 4.5 5.9 6.9.1.2.6.1.9.1l1 .8c.3 1.6 1.4 2.2 2.9 2.3.5.4 1.1.8 1.6 1.2 1 1.7 2.5 2.6 4.5 2.7.1.3.2.4.5.3.9 1.9 2.5 2.6 4.5 2.6.8.5 1.6 1 2.5 1.4 3 3 6.6 4.6 10.7 5.3.8.4 1.5.7 2.3 1.1 3.3 3 7.6 4 11.5 5.4 10.1 3.7 20.1 7.7 31.2 7.5l3.9.3c2.6 1.3 5.3 1.4 8.1.7 5 .5 10 .9 15 0 2.1.8 4.2.7 6.1-.7 1-.1 2-.2 2.9-.3 1.2.6 2.3.5 3.1-.7.6-.1 1.3-.2 1.9-.4 12.7-1.6 24.7-5.3 35.7-11.9 2-.5 3.8-1.5 5.5-2.7 2-.1 3.5-.9 4.5-2.7.3 0 .4-.1.5-.3 2.6-.5 4.9-1.5 6.5-3.7.3.1.4 0 .5-.3 1.3.2 2.1-.4 2.6-1.6.3.1.4-.1.5-.3 1.3.2 2.2-.4 2.5-1.7.5-.4 1.1-.8 1.6-1.2 1.3.1 2.1-.5 2.4-1.7.3 0 .4-.1.5-.4 1.3.1 2.1-.5 2.5-1.7 1.1-.4 2-1.1 2.6-2.2 3.6-1.8 6.1-4.5 8.4-8.1-1.1-.2-1.7-.5-2.1-.4z" fill="#FFF"/><path d="M643.1 407.9c-1.2-11.1-6.7-20.4-11.8-30-2.4-4.5-6-7.2-10.7-9.1-12.9-5.2-26.2-8.7-40-10.3-21.9-2.7-41.3 2.2-56.5 19.1-1.5 1.7-2.7 2.7-3.7-.3-.5-1.5-1.4-2.8-3.3-2.4-1.7.4-2.4 1.8-2.7 3.3-1.9 9.6 3.4 21.7 14.5 20 6.8 0 12.4-2.7 18.3-4.3 25.1-6.6 49.7-8 72.6 7.1 4.9 3.2 10.9 5.2 14.4 10.4 1.6 2.3 2.7 5 6 3.8 3.6-1.4 3.2-4.4 2.9-7.3zm14.6 53.7c-4.6-1.5-9.1-3-13.8-4.3-1.8-.5-3.8-.6-4.7 1.6-.9 2.4.6 3.7 2.5 4.7 4.5 2.4 9.5 3 13.8 3.8 2.3.1 3.9-.2 4.5-2.2.7-2-.6-3-2.3-3.6zm-59.6-7.8c-3.3.2-6.6 1.1-9.9 1.4-7.3.7-14.5 1.9-21.9.6-2.1-.4-4.2.3-4.7 2.7-.6 2.6 1.3 3.5 3.4 3.9 2.3.4 4.6.8 6 1.1 9.9-.1 18.6-2.8 27.4-4.2 2-.3 4.5-.2 4.2-3 0-2.6-2.6-2.7-4.5-2.5zm63.5-12c-4 .4-8 .4-11.9.8-3 .3-7.7-1.2-7.7 3.8 0 5.3 5.1 2.6 7.8 4 4.4-.6 8.9-1 13.3-1.9 2.2-.4 3.5-2.1 2.9-4.5-.6-2-2.3-2.4-4.4-2.2zm-36.2-2.9c-9.8-14.9-24.8-19-40.8-20.2-10.2 0-26.4 9.3-31.7 17.7-1.3 2.1-2.2 4.4-.6 6.5 1.9 2.5 3.9.6 5.7-.4 12.2-6.9 25.2-9.4 38.9-5.7 9.8 2.7 19.5 5.9 26.8 13.5 1.2 1.2 2.4 2.6 4.3 1.4 1.7-1.1 1.3-2.9 1-4.5-.7-3-1.9-5.7-3.6-8.3zm-353.9 19.8c-6 .5-12.1 1.9-18 4.2-1.6.6-3 1.7-2.6 3.7.3 1.9 1.8 2.4 3.4 2.1 6.3-1.2 12.8-1.7 18.9-4.1 1.7-.7 3-1.7 2.5-3.7-.4-2.1-2.1-2.2-4.2-2.2zm105.2-14.6c1.8 1 3.6 2.4 5.4.5 1.8-1.8.7-3.8-.6-5.4-9.9-12.2-22.5-18.8-38.5-17.9-5.2.2-10.2 0-15.4 1.2-12.3 2.8-19.8 11.8-27.6 20.3-2.8 3.1-5.5 6.3-8 9.6-2.3 3-1.1 5.8 1.5 7.8 2.7 2.1 4.4-.3 5.8-2.1 2.7-3.4 5.6-6.4 9.2-9 21.7-16.3 44.4-17.9 68.2-5zm62.4-73.8c-2 .4-2 2-1.7 3.6.4 2.2.5 4.3-.5 6.4-.6 1.3-1.2 3.2-2.9 3-2.4-.2-1.2-2.3-1.3-3.6-.3-4.3-1.5-8.1-4.3-11.5-4.3-5.2-9.6-9.1-15.8-11.9-15.5-7.1-31.8-9.4-50.7-8.4-19.8-.6-40.7 4.1-61.3 10.4-13 4-25.4 8.8-34.2 20.1-8.7 11.1-16.5 23-24.9 34.3-.4.5-.7 1.2-.9 1.8-.7 2.1-.4 4 1.4 5.4 1.7 1.4 3.6.9 5-.4 3.5-3.4 8-5.2 12-7.9 14.4-9.9 29.7-17.3 46.9-21.3 35.7-8.3 71.1-8.9 106.7.4 6.8 1.8 13.7 3 20.7 1.4 7.9-1.8 12.8-12.5 9.1-19.6-.6-1.3-1.5-2.6-3.3-2.2zM269 452.4c2.7.2 4.2-.4 4.7-2.3s-.6-3.3-2.2-4c-7.4-3.3-15.2-4.6-23.2-5.6-1.5-.2-2.7.5-3 2-.3 1.9 1.1 2.6 2.6 3.1 4.3 1.4 8.5 2.8 12.8 4.1 3 1.1 6 2 8.3 2.7zm160.7-29.6c-2.3-.8-3 1.4-3.9 3-2.9 5.4-5.4 11.1-8.8 16.2-14.8 22.5-35.2 38.2-59.6 49.3-15.6 7.1-31.3 9.9-48 4.4-1.4-.5-3.1-1.1-4 .7-1 2 .6 2.9 2 4 9.5 7.5 20.8 8.1 32.9 9 .6-.1 2-.2 3.3-.4 23.4-3.4 42.6-14.9 58.4-32 13.1-14.3 25-29.6 28.9-49.3.3-1.9 1-4.1-1.2-4.9zm-61.3 44.9c-14.1 9.1-29.4 13.8-46.2 13.1-1.9-.1-4 0-4 2.5-.1 2.3 1.8 3 3.7 3.2 4 .5 7.9.8 10.5 1.1 16-.2 28.8-4.9 39.9-14.2 2-1.7 4.5-4 2.3-6.7-2-2.3-4.3-.1-6.2 1zm384.8-105.3c-5.8-16.3-17.3-27.4-33.1-34.2-3.7-1.6-5.5-3.8-5.9-8.2-1.8-18.7-4.1-37.4-8.4-55.7-4.1-17.3-9.5-34.3-14.3-51.4-8.4-29.8-19.2-58.5-33.8-85.8-1.8-3.4-3.3-5.8 2.7-5.4 2.8.2 5.3-1.6 5.7-4.6.3-2.9-2.6-3-4.5-3.8-11-4.8-20.5-11.7-28.1-21-2.5-3.1-4.7-6.4-7.1-9.6-1.1-1.5-2.4-3.1-4.5-2-1.8.9-1.5 2.8-1.1 4.5.2.8.5 1.6.6 2.4.5 2.9-.6 3.8-3.3 2.5-.9-.4-1.8-.8-2.7-1.3-18.2-10.7-38.6-15.3-58.9-19.7-23.9-5.2-48.2-8.2-72.6-10.4-18.1-1.6-36-4.6-54.4-3.5-24.8 1.5-49.4 4.1-73.7 9.4-24.4 5.4-48.7 10.8-71.8 20.9-17.5 7.6-35.8 13.5-52.3 23.4-6.1 3.6-6.4 3.3-7.2-3.5-.2-1.9-.1-4.4-2.7-4.6-2.2-.2-2.8 2-3.3 3.8l-.6 2.4c-5.3 18.4-15.9 32.8-31.8 43.3-2.2 1.5-4.6 2.8-3.4 5.8 1.3 3.4 4.1 1.7 6.5 1.2.6-.1 1.3-.4 1.9-.6 1.4-.4 3.1-1.1 4.2.2 1.2 1.3.1 2.8-.4 4.2-9 24.3-18.2 48.6-24.3 73.8-2.1 8.6-4.3 17.1-5.9 25.8-3.6 18.5-5.7 37.2-7.5 55.9-2.2 23.2-3.8 46.5-1.8 69.8.1 1.3.6 2.8-.8 3.6-1.4.9-2.5-.4-3.6-1-5.6-3.3-11.4-6.2-18.1-6.5-21.5-.9-39.7 20.8-35.4 44.5 2.8 15.8 12.6 27.6 23.2 38.9 14.4 15.3 21.8 33.5 23.2 54.4 1 14.8 4.7 28.9 11.9 42 6.4 11.6 14 22 27.8 25.5 2.8.7 3.3 3 3.9 5.3 6.2 22.6 15 44.1 26.3 64.6 17.9 32.5 41.2 60.5 70.7 83.1 19.7 15 41.6 26.4 64.3 36.1 27.9 11.8 56.7 19.4 91.1 19.6 19.4-1.1 42.5-3.4 64.4-12.4 13.6-5.6 27.4-10.6 40.2-17.7 58.2-32.2 102.3-78.3 133.1-137 15.2-29 24-60.3 31-92.1.6-2.7 1.2-5.2 3.7-6.7 4.7-2.9 7.9-7.1 10.7-11.7 7.1-11.5 8.8-24.4 8.6-37.5-.2-20.2 5.2-38.6 15.3-56.1 11.4-20 14.1-41.1 6.3-62.9zM185.4 559.5c-1.3 1-2.6.2-3.7-.6-5.6-3.9-10-8.9-12.2-15.4-1.9-5.5-3.3-11.2-4-17-2.3-19.2-4.9-38.2-13-56.2-6.3-13.9-16.9-23.6-28.1-33.2-8.8-7.5-10.4-15.1-5.4-23.7 4-6.8 11.5-9.4 20-6.8 4 1.2 7.6 3.2 11.2 5.4 7.7 4.6 9.9 11.5 9.3 20.8-3.6-3.2-6.5-6-9.5-8.5-3.1-2.6-6.7-4.2-10.9-4.7-3.4-.4-6.3.6-8.3 3.5-2.1 3-1.2 6 .4 8.9 1.5 2.7 3.8 4.8 6.2 6.5 15.6 10.9 22.8 27.2 28.9 44.3 7.5 20.9 11.7 42.6 16.6 64.2.7 3.1 1.7 6.1 2.5 9.2.4 1.1 1.1 2.4 0 3.3zm29.8 44.4c-1.2-3.1-2.4-6.2-3.7-9.2-.9-2.3-.8-4.3.5-6.6 4.7-8.5 10-16.5 15.2-24.6.7-1.1 1.2-2.8 2.8-2.4 1.5.4 1.2 2.2 1.4 3.4.6 5.4 1.2 10.9 1.8 16.4.3 1.9-.4 3.6-1.4 5.1-3.9 6.2-7.9 12.3-11.8 18.5-2 2.9-3.5 2.6-4.8-.6zm15.2 31.2c-3.1-.3-3.7-5.4-5.2-8.5-6.4-12.8-6.3-12.9 1.3-25 1.9-3.1 3.9-6.2 6-9.2 1-1.5 2.6-3 3.4-.2 2.4 8.3 4.4 16.7 6.6 25.2-.3 3.9-3.1 6.8-5.3 9.8-2.1 3.1-3.2 8.2-6.8 7.9zm8.1 18.8c-5.5-8.5-6.4-15.8 1.2-23.2 1.6-1.6 2-5.1 4.3-5 2.7.1 2.7 3.7 3.8 5.8 1.9 3.8 3.6 7.8 5.3 11.8.5 1 .9 2.1 1.3 3.2-1 3.2-3 5.6-4.8 8.2-5.9 8.5-5.3 8.1-11.1-.8zM259 684c-.4-.2-.8-.2-1-.4-3.9-4.7-8.1-9.2-10.5-14.9-.5-1.3.4-2.6 1.1-3.7 1.7-2.8 3.5-5.7 5.3-8.4 4.1-6 4.2-6 8.3-.2 1 1.4 2 2.7 2.7 4.2 1.4 2.9 5.4 5 4.1 8.6-1.9 5.3-5.5 9.8-8.8 14.4-.3.1-.9.2-1.2.4zm16.8 18.9c-.6 1.3-2.2.3-2.9-.6-3.3-3.8-6.5-7.6-9.7-11.4-.9-1.1-1.1-2.5-.3-3.7 2.9-4.5 5.7-9 8.7-13.4.5-.7 1.1-1.3 2.5-1.1.2.1.8.3 1.4.6 1.3.6 2.6 1.1 3.7-.1 1.2-1.3 1-3 0-4.1-2.7-3.2-1.4-6 .4-9.1 10.7-18 21.3-36.1 32-54.2.7-1.2 1.2-3.1 2.9-3 1.8.1 1.8 2.1 2.3 3.4 1.6 4.2 4.1 8 6.5 11.8 1.4 2.2 1.5 4.1.2 6.5-12.5 23.9-26.4 47-39.9 70.4-2 3.3-6 4.5-7.8 8zm16.7 17.5c-4-3.5-8.1-6.9-12.1-10.4-1.5-1.3-2.6-2.9.4-4 2-.8 2.9-2.7 3.9-4.4 14-23.6 28.1-47.2 40.7-71.7 2.6-5 3-5.1 6.7-1 2.1 2.4 4.3 4.7 6.3 7.1 1 1.1 1.9 2.4 1.9 4.7-.3.8-.7 2.2-1.4 3.5-12.5 25.8-27.2 50.4-41.7 75.1-1.3 2-2.5 3-4.7 1.1zm43.1-109.7c5.4-10.1 5.4-10.2 12.6-1.3 1.7 2.2 3.9 4 4.7 7.3-1.9 4.3-4 8.8-7 12.8-1 1.4-2-.1-2.6-1-2.7-3.8-5.3-7.6-8-11.3-1.8-2.4-.9-4.4.3-6.5zm-22.7 124.5c-3.4-2.4-6.8-4.8-10.4-6.9-3.4-2-3.6-4.1-1.6-7.3 6.1-10.1 12-20.4 18-30.6 7.2-12.2 13.6-24.8 20.2-37.3.7-1.4.9-3.7 2.9-3.5 1.6.2 1 2.2 1.4 3.4.5 1.3 1.1 2.5 2.7 2.5 1.5 0 2.4-1 3.1-2.2.9-1.7 1.2-3.4 1.2-5.3-.2-1.3-.1-2.8-.7-3.9-4.4-8.7 1.6-14.8 5-21.6 1.1-2.1 2.4-1.9 3.8-.2 3.1 4.1 7 7.6 10.9 11 2 1.8 2.1 3.5.8 5.7-18.3 31-34.2 63.3-51.8 94.7-1.5 2.7-3 3.3-5.5 1.5zm212-152.2c3-7 6-14.1 8.7-21.2 1.3-3.3 3.1-4.4 6.4-3.5 3.3.9 6.6.9 9.9 0 2.6-.7 4-.1 2.8 2.9-6.8 16.6-14.4 32.9-22.2 49.1-.8 1.7-2.3 2.9-4.1 3.4-4 1-8.1 1.7-11.9 2.5-4.4-.1-2.8-2.5-2-4.4 4-9.6 8.3-19.2 12.4-28.8zm-6.6 1.1c0-.1.1-.2.1-.3h.3c.1.1.2.2.1.3-.1.5-.3.5-.5 0zm15.8-39.4c1.5-6.2 2-12.5 2.4-18.8.1-2 .4-3.6 3.1-3.6 8.2.1 16.1 7.9 16.1 14.4.1 7-2.8 10.6-6.9 13.1-4.4 2.6-9 1.6-13.4-.7-1.9-1-1.7-2.8-1.3-4.4zm-10.8 177.2c-5.2 9.5-12.3 14.8-21.9 18.1-1.1.4-2.3 1.2-3.2 0-.7-.8.2-1.9.6-2.8 14.4-30.8 28.7-61.5 43.1-92.3 1.3-2.8 3-5.2 5.5-7 9.5-6.6 18-14.3 25.4-23.2.9-1 1.6-2.6 3.9-2.2-.3 2.9-1.6 5.4-2.8 7.8-16.3 34.3-32.6 68.4-50.6 101.6zm9.6-3.5c-.3 2.4-2.4 3.4-4.3 4.4.1-2.3.6-4.4 2.8-5.3.7-.1 1.6.1 1.5.9zm-147.5-6.1c9-16.5 18-33.1 27.1-49.6.7-1.2 1.5-2.3 3.2-2 4.9 1.5 9.8 3 14.7 4.6.5.2 1.4.9 1.3 1.3-.6 4.3-3.4 7.5-5.7 10.9-1.7 2.4-4 .5-5.9-.2-2.2-.8-4.3-1.9-6.4-2.9-1.5-.7-2.9-1.1-3.9.6-.9 1.6-.4 3 1 3.9 2.3 1.6 4.6 3.3 7.1 4.6 2.8 1.5 3.5 3.2 1.9 6-6.6 12.3-13.1 24.7-19.6 37.1-1.6 3.1-3.1 3.5-5.5.6-2.6-3.2-5.5-6.3-8.4-9.2-1.7-1.7-2.1-3.5-.9-5.7zm-2-5.2c-.6 1.1-.9 2.6-2.9 2.7-.4-.6-.9-1.2-1.3-1.9-2.5-4.5-4.9-9.1-7.5-13.5-1.1-1.9-.7-3.4.2-5.1 6.2-12 12.3-24 18.4-36 1.1-2.2 2.3-3.4 5-1.9 3.5 1.9 7.2 3.5 10.9 5 3 1.2 3.7 2.7 2 5.7-8.3 15-16.5 30.1-24.8 45zm95.5-36.3c-2.1 4.1-4.2 8.3-6.4 12.3-2.1 4-6.1 2.4-8.6 2.9-11 .1-11.2-.1-6.2-9.5 1.4-2.7 1.8-6.7 5.3-7.4 5-1 10.2-1.2 15.3-1.4 2 0 1.1 2 .6 3.1zm7-2.7c4-4.8 10.6-4.9 16.1-6.8 1.9-.7 1.9 1.4 1.3 2.6-2.5 5.4-4.5 11.2-7.9 16-3.5 4.9-10 3.4-14.7 4.6-3 .3-3.4-1-2.3-2.9 2.4-4.7 4.3-9.6 7.5-13.5zm-31 4c-1.8 3.4-3.5 6.8-5.4 10.1-1 1.8-2.7 2.6-4.6 2.2-4.2-.9-8.4-2-12.6-3.1-1.8-.5-2.5-1.6-1.5-3.3 1.8-3.2 3.6-6.4 5.5-9.5 1.5-2.4 3.9-1.3 6.3-1.4 3.1.3 6.6.6 10.1.9 2.7.4 3.5 1.7 2.2 4.1zm-47.1 49.4c5.2-9.7 10.3-19.4 15.2-29.3 1.7-3.3 3.6-4.4 7.1-2.8 2.9 1.3 5.9 2.2 8.9 3.3 1.2.4 2.6.8 2.7 2.6-.3.7-.6 1.5-1 2.2-6.7 12.7-13.5 25.3-20.1 38-1.7 3.3-3.6 3.5-6.8 2.2-12.4-4.7-12.3-4.6-6-16.2zm16.4 16.9l21.6-40.5c1.1-2 2.6-2.9 4.9-2.7 3.8.3 7.6.6 11.4.8 2.6.1 3.2 1.4 2.1 3.6-6.8 14.6-13.7 29.2-20.5 43.8-.8 1.7-1.9 2.7-4.8 2.3-3.9-1-8.8-2-13.6-3.3-2.3-.6-2-2.3-1.1-4zm27.3-.5c5.4-12.3 11-24.5 16.9-36.6 1.9-3.8 4.1-6.3 8.5-6.3 3.6-.1 8.5-3.4 10.3-.9 2 2.8-1.9 6.9-3.5 10.2-6.2 13.2-12.6 26.4-18.9 39.6-1.3 2.7-2.5 5.7-6.4 5.1-11.3-.5-11.5-.8-6.9-11.1zm17.7 6.8c8.1-16.8 16.2-33.5 24.3-50.3 1.5-3 3.7-5 6.8-6.2 4.5-1.7 8.8-4 12.8-6.7 1.4-1 2.7-2.2 1.8-4.1-1-2-2.7-1.3-4.3-.9-2.6.7-5.8 4.1-7.6 1.9-2.1-2.5 1.6-5.6 2.5-8.4.7-2 1.8-3.9 2.6-5.9 1.7-4.4 4.6-7.5 9.1-9.4 4.8-2 9.3-4.5 14-6.6 1.3-.6 2.8-2 4-.6 1.3 1.3-.2 2.8-.8 4.1-9.3 20.1-18.7 40.1-28 60.2-3.7 7.8-8 15.4-11.1 23.4-4.3 11-13.4 12.8-23.2 13.9-3.4-.1-4.4-1.3-2.9-4.4zm87.1-124.9c-.6 1.1-1.5 1.8-2.6 2.2-.3 1.3-1.1 1.9-2.5 1.7 0 .3-.2.4-.5.4-.3 1.3-1.1 1.9-2.4 1.7-.5.4-1.1.8-1.6 1.2-.4 1.3-1.2 1.9-2.5 1.7-.1.3-.2.4-.5.3-.4 1.2-1.2 1.8-2.6 1.6 0 .3-.2.4-.5.3-1.6 2.3-3.9 3.3-6.5 3.7 0 .3-.2.4-.5.3-.9 1.8-2.5 2.6-4.5 2.7-1.7 1.2-3.5 2.2-5.5 2.7-11 6.6-23.1 10.3-35.7 11.9-.6.1-1.3.2-1.9.4-.8 1.2-1.9 1.3-3.1.7-1 .1-2 .2-2.9.3-1.9 1.4-3.9 1.5-6.1.7-5 .9-10 .5-15 0-2.8.7-5.5.6-8.1-.7l-3.9-.3c-11 .2-21.1-3.8-31.2-7.5-3.9-1.4-8.3-2.4-11.5-5.4-.8-.4-1.5-.7-2.3-1.1-4.1-.7-7.7-2.3-10.7-5.3-.8-.5-1.6-1-2.5-1.4-2 0-3.6-.7-4.5-2.6-.3 0-.4-.1-.5-.3-2-.1-3.5-1-4.5-2.7-.5-.4-1.1-.8-1.6-1.2-1.5-.1-2.6-.7-2.9-2.3l-1-.8c-.3 0-.8.1-.9-.1-2.1-2.4-7.4-4.1-5.9-6.9 1.5-2.8 5.5.9 8.2 2 10.5 4.2 21.1 7.8 32.3 9.8 1.6.3 3.4.1 4.5 1.6l1.9.4c7.2.3 14.1 1.9 21.1 3.7 1.3-.3 2.7-.3 4 .2 7.3.4 14.7.7 22 1.1 1-.5 2-.6 3-.1 7.2-1.8 14.6-1.6 22-2 .7-.1 1.3-.1 2-.2 8.5-2.7 17.5-2.9 26.2-5 15.1-3.7 30.2-7.6 44.3-14.4 1.3-.6 2.8-1.1 4.2-1.5.4-.1.9.1 2 .3-2.1 3.7-4.7 6.5-8.3 8.2zm-42-22.9c-2.4 5.6-5.1 11.2-7.6 16.8-1.1 2.6-2.7 3.9-5.6 4.1-3.6.1-7.3.5-10.9.9-3.1.3-3.5-.9-2.2-3.4 2.2-4.1 4.2-8.3 6.4-12.4.5-1 1.2-2.2 2.1-2.6 4.1-1.9 8-4 11.7-6.6 3.5-2.5 6.1-5.9 9.7-8.5.1 4.4-2 8-3.6 11.7zm-25.3 6.8c-2.1 4.1-4.1 8.4-6.4 12.4-2.6 4.5-7.2 2.1-10.5 2.8-9.5-.2-9.4-.2-5.5-8.4 2.2-4.7 4.3-9.4 6.4-14.1 1.2-2.7 2.6-3.8 5.1-1.2 2.4 2.5 5.6 3.5 8.9 4.2 2.7.5 3.2 2 2 4.3zm-19.8-8.5c-3 5.5-5.8 11.3-8.1 17.1-2.1 5.3-5.2 7.9-10.1 6.4-13.7-.4-13.8-.5-8.3-11.7 5.7-11.5 11.5-22.9 17.4-34.3.6-1.3 1-3.2 2.8-3 1.5.2 1.3 2.1 1.8 3.3 1.4 3.6 2.4 7.3 4.3 10.6 2.2 4 2.5 7.5.2 11.6zm-11.5-26.5c-7.3 14.4-14.7 28.7-21.7 43.2-2.1 4.4-4.5 5.5-8.9 4.2-3.3-1-6.9-1.1-10.3-1.7-2.9-.4-4.2-1.6-2.6-4.7 9.3-17.1 18.5-34.2 27.7-51.3 1.7-3.1 4.5-3.7 7-3.5 9.9.2 13 5.6 8.8 13.8zm-31.5 10.1c-5.3 10-10.8 19.9-16 29.9-1.7 3.2-3.7 4.4-7.2 3.3-1.9-.6-3.9-1-5.8-1.5-5.8-1.3-6-1.6-3.2-6.7 6.4-11.8 12.9-23.6 19.3-35.5 1.4-2.6 2.9-4.1 6.2-3.6 4 .6 7.8-1 11.4-2.8 1.3-.6 2.2-2.1 4.6-1.2-3.1 6.2-6.1 12.2-9.3 18.1zm-16.5-12.1c-6.8 12.2-13.4 24.5-20.1 36.8-1.1 2-2 4.4-5.2 4-5.2-1.6-10.5-3.2-15.7-5-3.2-1.1-1.9-3.3-.9-5.2 7.3-14 14.6-28 22-42 2.3-4.4 4.7-8.8 7.2-13.1.5-.9.9-2.4 2.5-1.9 1.2.4 1 1.6 1 2.6.4 6.5 3.6 11.7 8 16.2 2.4 2.2 3.1 4.3 1.2 7.6zm-77.8 178.8c-13.5-7.4-13-3.9-6-16.7 15.5-28.1 29.5-57 45.9-84.7 3.6-6.1 3.5-6.1 9.1-2 1.6 1.2 3.4 2.1 5 3.2 1.1.7 2.2 1.6 2 3.5-.3.6-.6 1.6-1.1 2.5-7.2 14.1-15.1 27.8-22.1 41.9-6.6 13.3-13.5 26.3-20.7 39.2-2.2 3.9-4.7 7.7-6.9 11.6-1.3 2.3-2.8 2.9-5.2 1.5zm21.6 10.2c-3.6-1.7-8.2-3.4-12.3-5.9-2.7-1.6-.4-3.9.6-5.6 6-10.5 12.1-21 18.3-31.4 1.3-2.2 1.5-6.2 4.5-5.9 2.5.3 2.5 4.3 4.2 6.4 5.9 7.5 4.7 14.4-.7 21.8-4 5.4-6.7 11.8-10.1 17.8-.8 1.3-1.5 2.9-4.5 2.8zm24.3 8.2c-4.5-1.5-9.9-3.1-15.2-5-2-.7-1.5-2.3-.7-3.7 4.6-8.3 9.1-16.6 13.7-24.9 1.6-2.9 3.4-2.7 5.4-.4 3 3.4 5.9 6.7 8.9 10.1 1.4 1.5 1.2 2.9.4 4.5-3 5.9-6.1 11.8-9 17.8-.6 1.1-1.1 2.1-3.5 1.6zm20.9 6c-4.2-1.1-8.3-2.1-12.5-3.2-2.4-.6-2.1-1.9-1.1-3.7 2.9-5 5.6-10.1 8.3-15.3 1.5-2.9 3.3-3.6 6.4-2.1 3.1 1.5 6.5 2.6 9.7 3.8 1.9.7 2.6 2 1.6 3.9-2.9 5-5.9 10-8.9 14.9-.8 1.3-2.1 1.7-3.5 1.7zm25.7 4c-5.1-.9-10.1-1.7-15.2-2.6-2.2-.4-2-1.8-1.1-3.4l7.5-12.9c.8-1.4 2.1-2 3.8-1.6 4.3 1.1 8.7 2.2 13 3.3 3.1.7 4.3 2.2 2.5 5.3-1.8 3-3.4 6.1-5.1 9.1-1.2 2.1-3 3.1-5.4 2.8zm26.4-6.9c-1.4 5.6-3.3 9.4-8.8 7.8h-2.7c-1.6-.1-3.7.7-4.7-.7-1.1-1.6.7-3 1.4-4.4l3.9-7.5c1.2-2.4 2.9-3.2 5.7-2.8 7.3 1.1 6.9.8 5.2 7.6zm22 5.6c-5.1.7-10.2 1.2-15.3 1.8-3.5.3-3.5-.9-2.6-4.1 2.6-8.7 8.6-10.4 15.2-9.4 1.7-.1 2.2-.3 2.7-.2 3 .5 6.8-2.9 8.9.8 1.4 2.4-5.6 10.6-8.9 11.1zm33.4-19c-2.3 8.2-11.5 15.6-20.1 16.3-3.3.3-2.2-1.6-1.6-3.1 2.4-6.2 5.4-11.7 13-12.8 2.6-.4 5-1.8 7.3-2.7 2-.1 1.7 1 1.4 2.3zm32.2-8.6c-1.3 2.6-3 4.8-5.8 6.4-7.9 4.3-16.1 7.8-25.9 11.6 4-8.2 6.6-15.7 13.8-20 21.1-12.6 31-32.7 37.5-55.1.3-.9.3-2 .2-3-.1-1.6-.6-3.1-2.4-3.4-1.6-.2-2.2 1.1-2.8 2.3-2.3 4.5-4.9 8.9-6.8 13.7-2.4 6.1-5.9 11.2-10.4 15.8-.5.4-.6 1.8-1.5.8-.6-.7-.2-1.4.7-1.7 2.9-10.3 8.3-19.6 13-29.1 14-28.6 28.1-57.1 40.8-86.3 2.4-5.5 3.7-11.3 6.3-16.6.4-.9.7-2.1 1.8-2.1 1.2 0 1.5 1.2 1.9 2.1 2.7 6.4 3.3 12.9.1 19.3-3.3 6.4-7.9 11.9-12.3 17.6-4.1 5.1-5.9 11.1-6.9 17.5-.3 2.1-.2 4.4 2.1 5 2.8.8 3.8-1.7 4.3-3.8 1.5-5.1 2.2-10.5 7.5-13.5.7.1.5.6.4 1-7.2 20.4-15.7 40.3-25.5 59.7-10.3 20.4-20 41.2-30.1 61.8zm69.9-57.9c-5.3 12.4-15.8 20.4-25.7 28.8-.7.6-1.8 1.6-2.6.8-1.4-1.4 0-2.8.6-4 7.2-12.8 13.4-26.1 19.7-39.3 15-31.3 28.2-63.2 39.4-96.1 8.9-26.2 18-52.3 30.3-77.2.6-1.3.8-2.9 3.4-4.1.4 6.3-.8 12-1.2 17.7-1.6 26.4-11.2 50.5-21.2 74.6-6.5 15.7-12.9 31.4-19.1 47.2-7 17.7-16.2 34.2-23.6 51.6zm94.4-239.7c.6 3.1.4 6.1-.8 9.1-.1.6-.1 1.3-.2 1.9.3 3.1.9 6.2-.6 9.1.5 1 .1 2-.3 2.9 0 3.2 1.6 6.7-1.6 9.3-.1 3.2-.3 6.5-.4 9.7-.7 13.5-3.8 26.6-6.7 39.8-7.2 32.4-18.4 63.3-33.2 92.9-10.2 20.5-23.5 39.1-38.6 56.3-.7.8-1.2 2-2.9 2.1-.7-1.9.5-3.4 1.1-4.9 7.9-18 17.5-35.1 27.6-52 23.9-40.2 34-84.3 35.5-130.7 0-.5.2-.9.4-1.4-1-5-.8-10-.9-15-1.3-1.6-1.2-3.3-.7-5.1-.1-.6-.2-1.3-.3-1.9-1.2-.8-1.2-1.9-.6-3.1-.1-.6-.2-1.3-.3-1.9-.9-.5-1.1-1.2-.7-2.1-.3-.1-.5-.4-.4-.7-1.3 0-2.5 0-3.8.1-2.2 5.5-.3 11.2-.8 16.7.8 3.6 2.2 7.3-.9 10.6-1 .9-2 1.9-2.9 2.8-5.8 13.8-12.9 27-17.9 41.1-6.3 17.5-12.9 35-19 52.6-12 34.5-26.8 67.8-42.9 100.5-6.3 12.9-13.5 25.3-19.8 38.1-2.9 6-8.6 9.1-13.5 13-2.3 1.9-4.9 3.4-7.5 5-1.2.7-2.4 2.5-3.9 1.2-1.3-1.2.1-2.8.8-4 10.7-19.2 18.7-39.8 29-59.2 9.7-18.1 15.8-37.7 24.1-56.4 15.9-36.1 28.3-73.6 44.9-109.4.9-2 2.7-4.1.1-6.3-1.3 1.2-2.5 2.4-3.8 3.7-3.4 8.1-6.8 16.2-10.1 24.3-5.4 13.1-10.7 26.2-16 39.2-.5 1.3-.8 3.2-2.5 3.3-1.5.1-1.7-1.8-2.4-2.9-.5-.7-.8-1.6-1.4-2.1-6.6-5-5-10.7-2.1-17.1 4.8-10.9 10-21.8 13.7-33.2.6-1.8 2.5-4.1-1.2-5l-2.7 2.4c-2.7 11.4-8.6 21.6-12.7 32.4-.8 2.2-1.8 4.3-2.6 6.5-.9 2.7-2.1 4.8-5.6 4.3-2-.3-3.5 1-4.3 2.8-.9 2 .1 3.5 1.7 4.7 1 .8 1.8 1.8 1.3 3-2.3 5.8-3.4 12.4-9.7 15.7-5.3 2.8-10.6 5.5-16 8.2-1 .5-2.1 1.4-3.2.3-1-1-.2-2.2.3-3.2 4.4-10.2 8.6-20.6 13.4-30.7 5.7-12.2 10.9-24.7 15.5-37.3.5-1.5 2.6-3.7.1-4.7s-3.3 1.7-3.9 3.5c-6.2 17.4-14.5 34-21.6 51-3 7.2-6.3 14.3-9.4 21.5-1.3 2.9-3.3 4.9-6.3 6.1-4.2 1.6-8.3 3.4-12.5 5-1.2.4-2.6 1.5-3.6.2-.7-1 .2-2.2.7-3.2 4.7-10.3 9.7-20.5 14.1-30.9 6.8-16.4 15-32.3 19.5-49.6.5-1.9 1.3-3.7.6-5.7-.7 0-1.3 0-2-.1-1.8 1.8-1.7 6-4.2 6-2.4 0-2.7-4.1-4.5-6-.4-.4-.5-1.2-.7-1.8-1.2-1-2.5-2.1-3.7-3.1-3.6-1.4-7.3-2.8-10.9-4.2h-5c-2.5 1.7-3.2.1-3.2-2 .1-5.7.3-11.4.5-17.1-.1-4.3-.3-8.6-.4-12.9-.2-.4-.7-.8-.6-1.2.1-2.2-1.4-5.3.5-6.4 2-1.2 3.4 1.8 4.9 3.1 1.8 1.6 4.7 1.6 5.8 4.2.3-.1.4 0 .5.3 4.5.1 8.6 2.2 12.9 3 8.4 1.6 16.7.7 25-1.1.1-.3.2-.4.5-.3.4-1.2 1.1-1.9 2.5-1.7l1.5-1.2c.6-1.6 1.8-2.6 3.5-2.6 1.2-1.5 2.3-2.9 2.1-5-5.5-1.8-10.7.8-16 1.7-14.3 2.2-27-1.8-39.2-8.3-.7-.4-1.4-.9-1.5-1.8-2.4-1.5-4.3-3.5-5.8-6-1.9-1-2.7-2.5-2.3-4.6-.1-.6-.2-1.3-.4-1.9-.9-.5-1-1.2-.5-2.1-.1-.6-.3-1.3-.4-1.9-.9-.5-1-1.2-.6-2.1l-1.4-4.9c-.9-.5-1-1.3-.5-2.1-.2-1-.3-1.9-.5-2.9-.9-.5-1-1.3-.5-2.1-.2-1.3-.3-2.6-.5-3.9-1-.9-1.1-1.9-.6-3.1-.5-1.6-.9-3.3-1.4-4.9-1.4-3-2.8-5.9-4.1-8.9-.3 0-.4-.2-.4-.5-1.2-.5-1.7-1.4-1.5-2.6-.4-.6-.7-1.2-1.1-1.8-1.3 0-2.5-.1-3.8-.1 0 .3-.1.6-.4.8.4 1.7.7 3.4 1.1 5.2l.9 2.3c3 6.3 5.1 12.8 6 19.8.1.6.3 1.3.4 1.9 1 .5 1.1 1.2.5 2.1.1.6.2 1.3.3 1.9.9.5 1.1 1.2.6 2.1.1.6.3 1.3.4 1.9 1.5 2.2 2.1 4.5 1.6 7.1.1.6.2 1.3.3 1.9 1.2 1.2 1.3 2.6.6 4.1.1 1.3.3 2.6.4 3.9 1.2 1.2 1.2 2.6.6 4.1.1 1.3.3 2.6.4 3.9 1.1 1.6 1.1 3.3.6 5.1.7 2.6.6 5.2.4 7.9 1.6 7 1.2 14 0 21-.1 1.6-.3 3.3-.4 4.9.6 1.8.6 3.5-.7 5.1-.1 1.3-.2 2.6-.4 3.9.7 1.5.6 2.9-.7 4.1-.1.6-.2 1.3-.3 1.9.6 1.8.5 3.5-.7 5.1-.1.6-.2 1.3-.3 1.9.5 1.5.4 2.9-.8 4.1-.1.6-.2 1.3-.3 1.9.1 3.6-.6 7-2.5 10.1-.2.6-.3 1.3-.5 1.9-.7 7.7-3.7 14.5-8.3 20.6.1.3-.1.4-.3.5.2 1.3-.5 2.1-1.7 2.5.1.3 0 .5-.3.5.2 1.3-.4 2.2-1.7 2.5-.4.5-.8 1.1-1.2 1.6-.9 2.4-2.4 4.3-4.8 5.4-.8 1.7-2 3.1-3.8 3.9-3.9 3.2-7.8 3.1-13.2-.5-.5-.2-.9-.5-1.4-.7-2-.1-2.9-1.3-3-3.1-1-.9-1.5-2-1.7-3.3-1.7-3.1-2.9-6.2-3-9.8-.1-.6-.3-1.3-.4-1.9-1-.5-1.1-1.2-.6-2.1-.7-2.1-1.3-4.2-2-6.2-1.1-.6-1.5-1.5-1.2-2.7-2.2-4-4.7-7.8-8-10.9-3.3-1.4-6.6-2.7-10-4.1-1 .3-2 .3-2.9-.2-1.4.6-2.8.6-4.1 0-.6.1-1.3.2-1.9.3-4 1.4-8 2.7-12 4.1 0 .3-.2.4-.5.3-.4 1.3-1.3 1.8-2.6 1.5 0 .3-.2.4-.5.3-.3 1.3-1.1 2-2.4 1.8 0 .3-.2.4-.5.3-3.1 2.7-6.2 4.8-9.7.7-.8-.3-1.1-.8-1.2-1.6-1.7-1-2.9-2.4-2.4-4.6-.5-1.6-.4-3.2.1-4.8-.6-1.2-.6-2.2.5-3.1.1-.6.3-1.3.4-1.9-.2-2.2 0-4.2 1.8-5.8.2-1.3.8-2.5 1.8-3.3.3-2.5 1.9-4 4.1-4.9.7-.7 1.4-1.3 2.1-2 3.6-4.7 8.6-5.3 13.9-4.9l1.9-.2c2.6-1.2 4.8-.5 7 1h2c1.7-2 .5-3.9-.2-5.8-10.7-3.9-21.3-4.3-31.8.8 0 .3-.2.4-.5.4-.3 1.3-1.1 1.9-2.4 1.9-1.7 1.6-3.4 3.2-5 4.8-.1 1.8-1.2 2.8-2.7 3.5.1.3 0 .5-.3.5-.7 3-2.1 5.6-4 8-.6 2.3-2 3.8-3.9 5.1-12.2 21-23.5 42.5-34.4 64.2-1.5 2.9-2.9 3.4-5.8 1.8-11.3-6.4-11.5-6.3-5.5-17.5 5.2-9.7 10.6-19.3 15.8-28.9.8-1.5 2.2-2.9 2-5.1-3.8-.4-5.2 2.3-6.7 4.9-6 10.9-12 21.9-18 32.9-1 1.9-1.8 4.4-4.7 1.9-1.2-1-2.2-3-4.1-1.7-1.9 1.2-2.1 3.3-2.2 5.3 0 .6 0 1.5.4 1.9 6.7 6.7-.2 11.4-2.6 16.6-1.2 2.6-3 2.6-4-.3-3.1-8.9-4.3-17.8-.2-26.7 2.3-5.1 5.7-8.9 11.7-9.8 3-.5 5.9-2 6.6-5.4.7-3.1-1.9-4.3-4.1-5.5-1.9-1.1-1.2-2.4-.5-3.8.9-1.7 2.5-3.1 2.5-5.6-3.3-.5-4.9 1.7-6.2 3.9-1.6 2.7-3.8 4.3-6.9 5.2-9.6 2.9-17.5 14.1-17.8 26.5-.1 6.9-2.5 12.5-5.9 18.2-10.4 17.3-20.6 34.6-30.9 52-2.8 4.7-3.3 4.7-6.1 0-7.9-13.1-7.5-12.8.1-25.8 14.8-25.5 31.5-49.8 45.8-75.6.6-1 1.2-2 1.7-3.1s1.8-2.4-.1-3.3c-1.4-.7-2.6 0-3.4 1.3-2.7 4.6-5.5 9.1-8.1 13.8-13.4 23.6-29.1 45.8-42.6 69.4-.7 1.2-1.2 3.2-2.9 3.1-2-.1-2-2.4-2.6-3.8-1.3-3.1-2.2-6.3-3.5-9.4-3.1-7.6-2.3-14.3 2.5-21.5 11.4-17.2 22-34.9 32.8-52.6 1.1-1.7 4.1-4.4 1.5-5.9-3-1.7-3.7 2.2-4.9 4.2-11.1 17.8-22.2 35.6-33.2 53.4-.6 1-1 2.4-2.4 2.2-1.4-.2-1.4-1.7-1.7-2.8-1.6-8-3.2-16-4.7-24-.5-2.4.5-4.5 1.8-6.6 6.5-10 13-20.1 19.6-30.2.5-.8 1.2-1.6 1.7-2.5.8-1.4 2.3-3 .4-4.4-2.1-1.5-2.9.8-3.7 2.1-5.3 8.1-10.5 16.2-15.8 24.3-.7 1.1-1.4 2.3-2.3 3.3-1.4 1.6-2.9 1.2-3-.8-.4-9.4-3.8-19.2 2.8-28 2.3-3.1 4.1-6.5 6.1-9.7.7-1.2 1-2.7-.4-3.6-1.8-1.2-2.2.7-2.9 1.7-1.3 1.9-2.5 3.9-3.8 5.9-.5.7-1 1.5-2 1.1-1-.3-.9-1.3-.9-2.1.1-6.8.7-13.5 2.3-20.1.3-3.3.4-6.7 1.6-9.9-.5-1.8-.7-3.5.5-5.1 0-3.6 2.8-7.4-.7-10.9l-4.8.1c-4.2 5.8-5.7 12.6-7.2 19.4-.4 1.8-.8 3.5-1.2 5.3.6.8.5 1.6-.4 2.1l-.6 3.9c-1.3 12.4-1.8 24.8-1.7 37.2 0 6.3-5.4 10.5-8.2 15.7-3 5.5-6.6 10.8-10 16.1-.7 1.1-1.1 2.7-2.8 2.5-1.4-.2-1.5-1.7-1.8-2.7-2.3-7.1-4.5-14.3-6.8-21.4-.7-2.3.6-3.5 1.9-5.1 9.3-10.9 17.3-22.8 25.2-34.8.4-.6.3-1.6.5-2.4l-5.7 1.2c.2 2.9-2.2 4.3-3.5 6.3-5.3 8-10.9 15.9-16.4 23.8-.9 1.3-1.6 3.3-3.6 2.9-1.6-.4-1.5-2.4-1.9-3.8-.2-.8-.3-1.7-.6-2.4-3.2-7.7-4.3-14.8 3.9-20.6 1.9-1.3 4.6-3.7 2.7-7.1-1 0-1.9.1-2.9.1-1.7 2.6-3.3 5.3-5 7.9-1.4 2-3 2.3-3.7-.5-1.8-7.5-3.5-15.1-5.2-22.7-1-1.8-1.4-3.8-1.4-5.9-1-.5-1.1-1.2-.5-2.1-.1-.6-.3-1.3-.4-1.9-1.2-.9-1.1-2-.5-3.1-.2-1-.3-1.9-.5-2.9-1.6-1.9-.7-3.3 1.1-4.4 0-.3.1-.5.4-.6 3.2-5.7 4.5-12.2 8.6-17.4.4-1.4 1.2-2.7 2.4-3.6.3-1.6 1.4-2.5 2.8-3.1l1.5-1.8c1.1-3.3.5-6.3-1.6-9-.3 0-.6-.1-.7-.4-1.1-.1-2.2-.3-3.2-.4-1.3.7-2.5 1.3-3.8 2-.9 1.8-2.4 3.1-4.4 4.2.9-6.6 3.9-12 8.3-16.6 2.7-2.7 3.1-5.2 1.4-8.9-2.4-5.3-2.6-11.4-2.6-17.1-.3-29.1-1.1-58.2 2-87.2 1.1-10 3.3-19.9 6.4-29.6.1-.6.2-1.3.3-1.9-.4-1.2 0-2.2.7-3.1.1-.6.2-1.3.3-1.9-.4-1.2 0-2.2.7-3.1.1-.6.2-1.3.2-1.9.3-3.5.9-7 2.7-10.1.1-.6.2-1.3.3-1.9 1.4-8.4 4-16.4 7.7-24.1.2-.6.3-1.3.5-1.9-.3-1.1.1-2 1-2.6l.9-2.4c.7-4.1 2.1-8 4.1-11.6.3-.8.7-1.6 1-2.3.5-3.3 1.9-6.1 4.1-8.5l3.8-7.5c1.1-3.8 2.7-7.4 5.3-10.5 1.5-2.2 2.9-4.4 4.4-6.6.1-1.1.7-1.8 1.8-2.1 2-2.3 4.1-4.6 6.1-6.9.4-1.5 1.4-2.6 2.8-3.1 2.1-2.3 4.1-4.6 6.2-6.8.5-1.5 1.3-2.6 2.8-3.1 2.7-3.3 6.7-4.6 9.9-7 .3-1.1 1.1-1.5 2.2-1.6.1-.3.4-.4.7-.4.2-1.3 1.6-.9 2.3-1.6.1-.3.3-.5.7-.5 1.6-1.8 3.7-2.6 6.9-3.4-8.8 13.3-17.1 25.8-25.5 38.3-8.4 12.4-16.8 24.8-25.3 37.1-2 2.9-1.5 5.6-.1 8.4l.2.1c.9-.1 1.6.4 2.1 1.1.7 0 1.4.1 2.1.1 1.8-1.5 3.8-2.5 6-3.2 2.7-2.7 5.5-5.4 8.2-8.1.5-2.1 2-3.2 3.6-4.3l2.4-2.7c.6-1.9 1.8-3.4 3.6-4.4.5-.5 1-1.1 1.4-1.6.3-1.6 1.1-2.7 2.7-3.3 1.1-1.2 2.2-2.5 3.4-3.7.6-2 1.8-3.4 3.6-4.3.8-.9 1.6-1.8 2.5-2.7.5-2 1.9-3.3 3.6-4.2 1.1-1.3 2.1-2.5 3.2-3.8.3-1.6 1.3-2.6 2.7-3.3.8-.9 1.5-1.8 2.3-2.7.3-1.6 1.3-2.6 2.7-3.3.8-.9 1.5-1.8 2.3-2.7.1-1.1.6-2 1.8-2.2 1.1-1.2 2.2-2.5 3.3-3.7.4-1.5 1.2-2.7 2.8-3.2 4.7-5.3 9.5-10.6 14.2-15.8.2-1.1.7-1.8 1.8-2.1.2-1.1.8-1.8 1.9-2.2.7-.9 1.5-1.8 2.2-2.8.2-1.1.8-1.8 1.8-2.2 1.1-1.3 2.1-2.6 3.2-3.8.4-1.5 1.5-2.5 2.8-3.2 2.1-2.3 4.1-4.6 6.2-6.8 1-2.3 2.8-3.8 4.9-5.1 1.5-2.1 3.3-3.8 6.5-5.1-1.3 4.6-2.1 8.7-3.5 12.6-8 21.8-16.2 43.7-24.4 65.4-1.2 3.1-2.9 6-4.2 9.1-1.2 2.9-1.2 5.6 1.8 7.4 2.8 1.7 5 .4 7-1.7 27.9-29.3 53.7-60.4 77.9-92.8 5.1-6.8 9.9-13.7 15.8-20.4 3.2 11.4 5.8 22.5 6.9 33.8 1.9 19.1 6.8 37.6 9.6 56.5.4 2.7 1.5 4.9 4.5 5.2 2.9.3 4.7-1.5 5.8-3.9 3.4-7.5 4.9-15.5 6.8-23.5 5.5-22.9 9.2-46.3 15.4-69 1.3-4.7 2.8-5.3 6.1-1.7 9.8 10.7 19.9 21 30.7 30.6 20.3 17.8 37.9 38.3 57.4 57 4.3 4.1 8 8.9 12 13.3 1.8 2 3.9 4 6.9 2.5 3-1.5 2.3-4.5 2.1-7.1-.2-2.2-1.1-4.1-2.3-6-12.8-21.2-25-42.8-38.4-63.7-3.6-5.6-6.6-11.5-9.9-17.3v-.1h-.1s.1 0 .1-.1c.1-.3.2-.5.2-.8.1.2.3.3.4.5 1.9-.7 3.1 1 4.4 2 21.6 16.9 44.5 32.1 66.6 48.4 6.3 4.6 12 10.1 18.1 14.9 2.8 2.2 6 6.3 9.9 2.5 3.5-3.3 1-7.1-1-10.4-3.5-6.1-8.3-11.2-13.2-16.2-10.5-10.7-20.9-21.4-30.8-32.8-1.5-.6-3.8-2-2.3-3.1 1.7-1.2 4.2.5 5.4 2.7 1 .1 2.2-.2 3 .3 9.5 6.2 20.7 10.2 27.2 20.4 1.2.3 1.9 1.1 1.8 2.4.4.5.8 1.1 1.2 1.6 1.2.3 1.9 1.1 1.7 2.5 1.2.9 1.9 2.1 2.4 3.5 1.2.4 1.8 1.2 1.6 2.6.3 0 .4.2.3.5 1.2.4 1.8 1.3 1.6 2.6l1.5 2.4c1.2.5 1.8 1.3 1.5 2.6.5.8.9 1.6 1.4 2.5 1.2.5 1.7 1.3 1.3 2.6.5 1.1 1 2.3 1.6 3.4 1.2.4 1.8 1.2 1.6 2.5.3 0 .4.2.4.5 1.2.3 1.9 1.1 1.8 2.4.3 0 .4.2.3.5 2.1 1.7 3.3 3.9 3.6 6.5.6 1.1 1.1 2.2 1.7 3.3 3.2 3.7 4.2 8.5 6 12.9 5.9 14 11.7 28.1 17.5 42.1.4.9 1.1 1.7.5 2.8 6.9 22.2 13.9 44.3 20.6 66.6 2 6.6 4.2 13.2 4.7 20.2 2 .4 2 1.7 1.5 3.3.2 1 .5 2 .7 3 .2.1.3.2.2.5.6 1 1 2.1.8 3.4 1 .5 1 1.3.4 2.1 2.1 11.9 4.4 23.7 6.4 35.6.4 2.6.1 5.3.1 7.9.7 0 1.4.4 1.4 1.1-.1 6.4 1.1 12.9.1 19.3.1 1.6.2 3.3.3 4.9 1.4 8.7 1.6 17.3 0 26 .2 3.9-.3 8.8-.7 13.8zm31.6-38.1c-12.3 18.5-17 39.1-18.1 61-.7 13-1.6 25.9-6.5 38.2-.7 1.8-1.4 4.8-3.6 4.1-2.4-.7-.7-3.5-.3-5.2 3.6-16.3 3.2-33 5.1-49.5.9-7.4.2-15.1 1.3-22.4 1.6-10.2 5.8-19.7 10.7-28.8 2.6-4.8 5.4-9.6 6.9-14.9 2.5-9.3-2.2-16.8-11.6-18-2.8-.4-2.7-1.8-2.7-3.7.1-3.8.3-7.7.2-11.5-.1-3.4 1.4-3.8 4.4-3.3 9.7 1.9 19.5 13.1 20.5 24 .2 2.1 0 4.3 0 5.6 1 9.5-1.6 17.3-6.3 24.4zM526.6 107.7l.6-.3-.6.3z" fill="#030303"/></g></svg>