<?xml version="1.0" standalone="no"?>
<!DOCTYPE svg PUBLIC "-//W3C//DTD SVG 20010904//EN"
 "http://www.w3.org/TR/2001/REC-SVG-20010904/DTD/svg10.dtd">
<svg version="1.0" xmlns="http://www.w3.org/2000/svg"
 width="874.000000pt" height="874.000000pt" viewBox="0 0 874.000000 874.000000"
 preserveAspectRatio="xMidYMid meet">
<metadata>
Created by potrace 1.11, written by Peter Selinger 2001-2013
</metadata>
<g transform="translate(0.000000,874.000000) scale(0.100000,-0.100000)"
fill="#000000" stroke="none">
<path d="M4218 8184 c-2 -1 -43 -5 -92 -9 -49 -4 -96 -8 -105 -10 -9 -1 -45
-6 -81 -10 -93 -11 -105 -13 -105 -15 0 -1 -18 -3 -40 -5 -22 -2 -51 -6 -65
-9 -14 -4 -38 -9 -55 -12 -16 -2 -59 -11 -95 -18 -36 -8 -68 -12 -72 -9 -5 2
-8 0 -8 -5 0 -5 -6 -9 -12 -9 -7 0 -49 -8 -93 -18 -100 -23 -95 -22 -97 -25
-2 -1 -12 -4 -23 -5 -37 -4 -219 -61 -305 -95 -30 -12 -59 -23 -65 -25 -15 -3
-45 -15 -90 -35 -22 -9 -58 -23 -80 -30 -22 -7 -42 -16 -45 -19 -6 -8 -142
-61 -154 -60 -5 0 -12 -3 -15 -8 -3 -4 -31 -19 -61 -33 -30 -14 -76 -37 -103
-52 -26 -15 -58 -30 -71 -34 -22 -5 -24 -2 -31 46 -6 44 -10 51 -27 48 -16 -2
-28 -24 -53 -93 -59 -165 -136 -273 -263 -367 -85 -64 -93 -76 -67 -98 11 -9
25 -10 56 -2 68 17 78 4 49 -63 -5 -11 -13 -33 -18 -50 -6 -16 -29 -82 -52
-145 -47 -128 -120 -345 -125 -373 -2 -10 -14 -52 -25 -95 -12 -42 -24 -88
-26 -102 -3 -14 -8 -34 -11 -45 -4 -11 -8 -24 -9 -30 -1 -5 -9 -46 -18 -90
-17 -89 -24 -124 -32 -175 -3 -19 -7 -46 -10 -60 -2 -14 -7 -45 -9 -70 -6 -51
-14 -121 -20 -165 -2 -16 -6 -66 -10 -110 -3 -44 -8 -91 -10 -105 -14 -83 -20
-324 -14 -577 1 -78 -5 -89 -39 -65 -112 75 -232 86 -342 30 -48 -25 -126 -99
-135 -129 -4 -11 -10 -19 -15 -19 -5 0 -19 -32 -31 -71 -18 -58 -21 -86 -16
-149 3 -42 11 -90 18 -106 33 -83 70 -146 123 -214 52 -65 73 -90 131 -154 38
-42 88 -127 135 -226 20 -43 50 -172 55 -245 5 -57 17 -150 21 -156 2 -3 6
-21 9 -40 12 -74 68 -211 126 -308 52 -88 146 -171 214 -187 46 -11 60 -32 94
-144 29 -94 66 -199 91 -255 61 -142 101 -226 153 -320 47 -85 139 -229 150
-233 4 -2 7 -8 7 -13 0 -5 21 -36 47 -70 27 -33 55 -71 63 -82 16 -23 65 -79
165 -185 58 -61 266 -243 286 -251 6 -1 22 -14 36 -27 14 -13 32 -24 39 -24 8
0 14 -4 14 -8 0 -15 402 -241 440 -247 3 -1 31 -13 63 -28 32 -15 60 -27 63
-27 3 0 20 -7 37 -15 43 -19 224 -81 267 -90 11 -3 29 -7 40 -10 11 -3 29 -7
41 -10 11 -2 29 -7 39 -10 10 -3 33 -8 51 -10 19 -3 45 -7 59 -10 181 -38 495
-34 700 10 14 3 34 7 45 9 44 9 150 38 189 53 61 23 186 72 226 89 19 9 44 19
55 24 56 23 178 85 245 125 41 24 86 50 100 57 14 7 27 15 30 18 11 12 79 60
85 60 5 0 152 107 165 120 3 3 30 25 60 50 112 91 263 238 376 365 219 248
433 592 557 895 62 153 150 442 182 600 2 8 9 35 16 60 7 25 14 51 15 59 2 13
44 55 63 63 12 6 71 86 71 97 0 6 3 11 8 11 4 0 15 19 24 43 34 83 50 174 53
294 2 68 7 142 10 165 7 50 44 205 54 227 4 9 33 68 64 131 31 63 65 137 77
165 105 245 54 553 -120 726 -57 56 -194 149 -221 149 -16 0 -37 55 -43 116
-3 34 -8 77 -11 95 -2 19 -7 57 -9 84 -3 28 -10 77 -16 110 -6 33 -13 80 -16
105 -3 24 -10 52 -15 62 -5 10 -8 18 -5 18 2 0 -4 30 -14 66 -11 37 -19 69
-18 73 1 3 -1 13 -4 21 -15 43 -49 161 -54 188 -13 68 -161 534 -190 599 -8
17 -14 34 -14 38 0 3 -9 25 -19 48 -10 23 -31 71 -46 107 -14 36 -53 118 -86
183 -33 65 -57 122 -54 127 4 6 16 10 28 10 30 0 67 27 67 48 0 17 -72 62 -97
62 -7 0 -13 5 -13 10 0 6 -5 10 -11 10 -28 0 -218 163 -219 188 0 4 -19 29
-43 55 -29 34 -47 47 -58 42 -13 -5 -15 -13 -9 -38 11 -53 -13 -84 -40 -52 -7
8 -21 15 -30 15 -10 0 -20 3 -22 8 -9 20 -323 136 -396 146 -15 2 -34 6 -42 9
-8 3 -28 8 -45 11 -16 2 -59 11 -95 19 -36 9 -83 19 -105 22 -22 4 -53 9 -70
11 -16 3 -41 7 -55 10 -79 14 -296 41 -395 49 -27 2 -66 6 -85 8 -33 5 -108
13 -210 24 -48 5 -408 11 -412 7z m1613 -611 c13 -17 13 -17 -6 -3 -11 8 -22
16 -24 17 -2 2 0 3 6 3 6 0 17 -8 24 -17z m67 -78 c-3 -3 -9 2 -12 12 -6 14
-5 15 5 6 7 -7 10 -15 7 -18z m-2465 -10 c-3 -9 -8 -14 -10 -11 -3 3 -2 9 2
15 9 16 15 13 8 -4z m-10 -40 c-3 -9 -8 -14 -10 -11 -3 3 -2 9 2 15 9 16 15
13 8 -4z m2548 -22 c13 -16 12 -17 -3 -4 -10 7 -18 15 -18 17 0 8 8 3 21 -13z
m-2570 -40 c-12 -20 -14 -14 -5 12 4 9 9 14 11 11 3 -2 0 -13 -6 -23z m2650
-40 c13 -17 13 -17 -6 -3 -11 8 -22 16 -24 17 -2 2 0 3 6 3 6 0 17 -8 24 -17z
m-2683 -55 c-6 -18 -15 -37 -20 -43 -9 -10 -9 -8 11 48 15 38 22 34 9 -5z
m2747 -8 c3 -6 -1 -7 -9 -4 -18 7 -21 14 -7 14 6 0 13 -4 16 -10z m-2784 -84
c-14 -36 -22 -33 -9 5 6 16 12 28 14 26 3 -2 0 -16 -5 -31z m2840 17 c13 -16
12 -17 -3 -4 -10 7 -18 15 -18 17 0 8 8 3 21 -13z m-3360 -36 c-10 -9 -11 -8
-5 6 3 10 9 15 12 12 3 -3 0 -11 -7 -18z m-24 -42 c-23 -22 -33 -18 -12 5 10
11 20 18 23 16 2 -3 -3 -12 -11 -21z m524 2 c-10 -9 -11 -8 -5 6 3 10 9 15 12
12 3 -3 0 -11 -7 -18z m-31 -74 c-23 -41 -23 -38 0 20 8 21 16 34 18 28 2 -5
-6 -27 -18 -48z m-516 32 c-4 -8 -10 -15 -15 -15 -5 0 -13 -10 -18 -22 -5 -13
-16 -32 -25 -43 -29 -36 -66 -96 -66 -105 0 -6 -3 -10 -8 -10 -4 0 -16 -16
-26 -35 -11 -19 -26 -41 -34 -48 -21 -16 -17 -10 93 157 80 121 116 165 99
121z m499 -95 c-3 -11 -10 -23 -16 -27 -5 -3 -8 -2 -5 3 3 5 8 17 11 27 9 24
16 22 10 -3z m-32 -67 c-12 -20 -14 -14 -5 12 4 9 9 14 11 11 3 -2 0 -13 -6
-23z m-9 -45 c-7 -7 -12 -8 -12 -2 0 14 12 26 19 19 2 -3 -1 -11 -7 -17z m-29
-68 c-3 -12 -8 -19 -11 -16 -5 6 5 36 12 36 2 0 2 -9 -1 -20z m-644 -40 c-8
-10 -52 -76 -99 -144 -47 -69 -89 -126 -93 -126 -6 0 67 115 83 130 3 3 23 32
45 65 21 33 42 62 47 63 4 2 8 10 8 18 0 8 5 14 11 14 8 0 7 -7 -2 -20z m631
0 c0 -5 -5 -10 -11 -10 -5 0 -7 5 -4 10 3 6 8 10 11 10 2 0 4 -4 4 -10z m-40
-86 c-10 -21 -19 -35 -20 -31 0 13 32 78 36 74 2 -2 -5 -21 -16 -43z m-806
-228 c-9 -15 -19 -25 -21 -22 -3 2 3 16 13 30 9 15 19 25 21 22 3 -2 -3 -16
-13 -30z m2856 -1786 c0 -5 -7 -7 -15 -4 -8 4 -15 8 -15 10 0 2 7 4 15 4 8 0
15 -4 15 -10z m-3228 -401 c-18 -4 -43 -16 -56 -28 -27 -25 -45 -28 -20 -3 33
33 66 50 87 44 19 -5 17 -7 -11 -13z m3392 -95 c5 -14 4 -15 -9 -4 -17 14 -19
20 -6 20 5 0 12 -7 15 -16z m51 -54 c10 -11 16 -20 13 -20 -3 0 -13 9 -23 20
-10 11 -16 20 -13 20 3 0 13 -9 23 -20z m1379 2 c2 -4 -5 -9 -17 -9 -17 -2
-19 0 -7 7 18 12 18 12 24 2z m-1339 -32 c3 -5 1 -10 -4 -10 -6 0 -11 5 -11
10 0 6 2 10 4 10 3 0 8 -4 11 -10z m1365 6 c0 -3 -4 -8 -10 -11 -5 -3 -10 -1
-10 4 0 6 5 11 10 11 6 0 10 -2 10 -4z m-1310 -42 c0 -2 -9 0 -20 6 -11 6 -20
13 -20 16 0 2 9 0 20 -6 11 -6 20 -13 20 -16z m30 -4 c0 -5 -2 -10 -4 -10 -3
0 -8 5 -11 10 -3 6 -1 10 4 10 6 0 11 -4 11 -10z m55 -20 c3 -6 -1 -7 -9 -4
-18 7 -21 14 -7 14 6 0 13 -4 16 -10z m365 6 c0 -3 -4 -8 -10 -11 -5 -3 -10
-1 -10 4 0 6 5 11 10 11 6 0 10 -2 10 -4z m-70 -10 c0 -2 -9 -6 -20 -9 -11 -3
-18 -1 -14 4 5 9 34 13 34 5z m-210 -12 c0 -8 -19 -13 -24 -6 -3 5 1 9 9 9 8
0 15 -2 15 -3z m156 -1 c-3 -3 -22 -7 -43 -9 -21 -2 -33 0 -26 4 13 8 77 13
69 5z m-3362 -91 c3 -5 -8 -6 -25 -4 -16 2 -29 6 -29 8 0 8 49 4 54 -4z m4406
-113 c0 -11 -3 -11 -24 -3 -23 9 -20 23 4 17 11 -3 20 -9 20 -14z m105 11 c-3
-5 -12 -10 -18 -10 -7 0 -6 4 3 10 19 12 23 12 15 0z m-38 -17 c-9 -9 -47 -12
-52 -3 -2 3 10 7 28 8 17 2 28 -1 24 -5z m-2627 -107 c0 -3 -4 -8 -10 -11 -5
-3 -10 -1 -10 4 0 6 5 11 10 11 6 0 10 -2 10 -4z m60 -6 c0 -5 -2 -10 -4 -10
-3 0 -8 5 -11 10 -3 6 -1 10 4 10 6 0 11 -4 11 -10z m-93 -6 c-3 -3 -12 -4
-19 -1 -8 3 -5 6 6 6 11 1 17 -2 13 -5z m2223 -4 c-8 -5 -19 -10 -25 -10 -5 0
-3 5 5 10 8 5 20 10 25 10 6 0 3 -5 -5 -10z m-2286 -8 c3 -5 -1 -9 -9 -9 -8 0
-12 4 -9 9 3 4 7 8 9 8 2 0 6 -4 9 -8z m266 -2 c8 -5 11 -10 5 -10 -5 0 -17 5
-25 10 -8 5 -10 10 -5 10 6 0 17 -5 25 -10z m-300 -14 c0 -2 -8 -10 -17 -17
-16 -13 -17 -12 -4 4 13 16 21 21 21 13z m2255 -26 c-16 -16 -31 -28 -33 -25
-4 4 48 54 57 55 3 0 -8 -13 -24 -30z m-1005 -15 c0 -2 -9 -3 -19 -2 -11 0
-18 5 -15 9 4 6 34 0 34 -7z m65 -5 c3 -6 -1 -7 -9 -4 -18 7 -21 14 -7 14 6 0
13 -4 16 -10z m876 -10 c-13 -11 -28 -20 -35 -20 -6 0 3 9 19 19 39 25 46 25
16 1z m-810 -17 c13 -17 13 -17 -6 -3 -11 8 -22 16 -24 17 -2 2 0 3 6 3 6 0
17 -8 24 -17z m-3271 -18 c-7 -8 -18 -15 -24 -15 -6 0 -2 7 8 15 25 19 32 19
16 0z m4020 11 c0 -3 -4 -8 -10 -11 -5 -3 -10 -1 -10 4 0 6 5 11 10 11 6 0 10
-2 10 -4z m-4275 -16 c-27 -12 -43 -12 -25 0 8 5 22 9 30 9 10 0 8 -3 -5 -9z
m4215 1 c0 -4 -11 -6 -25 -3 -14 2 -25 6 -25 8 0 2 11 4 25 4 14 0 25 -4 25
-9z m-609 -19 c-13 -2 -27 0 -32 5 -6 6 3 7 23 4 28 -4 29 -6 9 -9z m539 -7
c-8 -10 -28 -14 -54 -13 l-41 1 40 4 c22 3 44 9 50 14 15 15 19 10 5 -6z
m-470 -4 c0 -5 -9 -7 -20 -4 -11 3 -20 7 -20 9 0 2 9 4 20 4 11 0 20 -4 20 -9z
m97 -3 c7 -1 10 -5 7 -9 -2 -4 -19 -3 -37 3 -43 15 -50 22 -12 14 17 -4 35 -7
42 -8z m208 -7 c17 -4 -9 -7 -62 -6 -51 0 -84 3 -75 7 21 8 97 8 137 -1z m59
-3 c-3 -4 -9 -8 -15 -8 -5 0 -9 4 -9 8 0 5 7 9 15 9 8 0 12 -4 9 -9z m-3584
-27 c-5 -11 -15 -23 -21 -27 -6 -3 -3 5 6 20 20 30 30 35 15 7z m-545 -21 c3
-5 1 -10 -4 -10 -6 0 -11 5 -11 10 0 6 2 10 4 10 3 0 8 -4 11 -10z m4578 -95
c-3 -9 -8 -14 -10 -11 -3 3 -2 9 2 15 9 16 15 13 8 -4z m-1985 -42 c-10 -2
-26 -2 -35 0 -10 3 -2 5 17 5 19 0 27 -2 18 -5z m72 -23 c0 -5 -2 -10 -4 -10
-3 0 -8 5 -11 10 -3 6 -1 10 4 10 6 0 11 -4 11 -10z m-245 -10 c-3 -5 -12 -10
-18 -10 -7 0 -6 4 3 10 19 12 23 12 15 0z m-35 -14 c0 -2 -8 -10 -17 -17 -16
-13 -17 -12 -4 4 13 16 21 21 21 13z m-41 -29 c-2 -1 -13 -9 -24 -17 -19 -14
-19 -14 -6 3 7 9 18 17 24 17 6 0 8 -1 6 -3z m-52 -33 c-3 -3 -12 -4 -19 -1
-8 3 -5 6 6 6 11 1 17 -2 13 -5z m783 -328 c0 -2 -7 -7 -16 -10 -8 -3 -12 -2
-9 4 6 10 25 14 25 6z m-135 -16 c3 -5 1 -10 -4 -10 -6 0 -11 5 -11 10 0 6 2
10 4 10 3 0 8 -4 11 -10z m65 -16 c0 -8 -19 -13 -24 -6 -3 5 1 9 9 9 8 0 15
-2 15 -3z m-2300 -478 c0 -2 -8 -10 -17 -17 -16 -13 -17 -12 -4 4 13 16 21 21
21 13z"/>
</g>
</svg>
