<?xml version="1.0" encoding="utf-8"?>
<!-- Generator: Adobe Illustrator 19.1.0, SVG Export Plug-In . SVG Version: 6.00 Build 0)  -->
<svg version="1.1" id="Layer_1" xmlns="http://www.w3.org/2000/svg" xmlns:xlink="http://www.w3.org/1999/xlink" x="0px" y="0px"
	 viewBox="-288 369 34.8 55" style="enable-background:new -288 369 34.8 55;" xml:space="preserve">
<style type="text/css">
	.st0{fill:#222222;}
</style>
<g>
	<g>
		<path class="st0" d="M-258.2,387.1c0.1,0,0.1,0,0.2,0c1,0.3,1.7,0.7,1.7,0.7c0.9,0.5,3.2,1.9,3.2,1.9c-0.5-1.1-2.1-2.6-2.4-2.9
			c-0.2-0.2-5-5.1-15.4-5.2h-0.2c-0.1,0-0.2,0-0.3,0l0,0c-0.5,0-1.1,0-1.7,0c-6.2,0-14.2,0.6-14.3,0.6h-0.6v1.5l0.5,0.1
			c1.2,0.2,4.7,1,4.7,2.8v19c0,2.7-4.7,3.7-4.8,3.7l-0.4,0.2v1.7l0.9-0.2c0.8-0.2,3-0.5,8.9-0.5c2.7,0,5.3,0.1,6.6,0.1
			c0.3,0,0.6,0,0.9,0c9,0,16.2-6.5,16.2-14.5c0-3.2-1.4-6.4-3.9-9C-258.2,387.1-258.2,387.1-258.2,387.1z M-269.9,406.3h-4.2
			c-0.9,0-1.3-0.9-1.3-1.4v-18.4c0-0.3,0-0.4,0-0.6c0-0.3,0.1-0.4,0.8-0.4c0.1,0,0.2,0,0.3,0h0.1c0.2,0,0.5,0,0.8,0
			c2.2,0,4.1,0.5,5.9,1.4c0.8,0.4,1.5,0.9,2.1,1.5c2.2,2,3.5,4.8,3.5,7.7C-261.9,402-265.3,406.3-269.9,406.3z"/>
		<path class="st0" d="M-269,424c0,0,0.6-5.6,1.2-12.8c-0.8,0.1-1.6,0.2-2.4,0.2C-269.6,418.4-269,424-269,424z"/>
		<path class="st0" d="M-269,369c0,0-0.9,5.2-1.5,11.5c1.1,0,2.1,0.1,3,0.2C-268.1,373.9-269,369-269,369z"/>
		<path class="st0" d="M-278.8,375.5c0,0-0.3,2.1-0.7,5.1c0.5,0,1,0,1.5-0.1C-278.5,377.5-278.8,375.5-278.8,375.5z"/>
		<path class="st0" d="M-278.8,417.2c0,0,0.3-2.1,0.6-5.9c-0.4,0-0.8,0-1.2,0C-279.1,414.8-278.8,417.2-278.8,417.2z"/>
		<path class="st0" d="M-259.5,375.4c0,0-0.5,3.1-1,7.1c0.8,0.3,1.4,0.7,2,1C-258.9,378.8-259.5,375.4-259.5,375.4z"/>
		<path class="st0" d="M-258.2,386.5C-258.2,386.5-258.2,386.4-258.2,386.5C-258.2,386.4-258.3,386.4-258.2,386.5
			C-258.3,386.4-258.2,386.5-258.2,386.5z"/>
		<path class="st0" d="M-270.7,405h0.7c0.9,0,1.9-0.1,2.7-0.6c0.3-4.1,0.4-7.6,0.4-11.3c0-1.8-0.1-3.1-0.1-4.8
			c-0.2-0.1-0.4-0.3-0.6-0.4c-1.1-0.6-2.2-0.9-3.4-1.2c-0.2,2.3-0.2,4.2-0.2,6.4C-271.2,396.6-271,401-270.7,405z"/>
		<path class="st0" d="M-260.4,408.6c0.4,5.1,0.9,9.3,0.9,9.3s0.5-4.8,1-10.8C-259.1,407.7-259.7,408.1-260.4,408.6z"/>
	</g>
</g>
</svg>
