<?xml version="1.0" encoding="utf-8"?>
<!-- Generator: Adobe Illustrator 19.1.0, SVG Export Plug-In . SVG Version: 6.00 Build 0)  -->
<svg version="1.1" id="Layer_1" xmlns="http://www.w3.org/2000/svg" xmlns:xlink="http://www.w3.org/1999/xlink" x="0px" y="0px"
	 viewBox="18 73 648 648" style="enable-background:new 18 73 648 648;" xml:space="preserve">
<style type="text/css">
	.st0{fill:#1189B6;}
	.st1{enable-background:new    ;}
	.st2{fill:#FFFFFF;}
</style>
<rect x="18" y="73" class="st0" width="648" height="648"/>
<g class="st1">
	<path class="st2" d="M136.9,632.2c24.6,0,43.1-13.3,43.1-51.6v-8.9c0-5.2,0.8-12.1,0.8-12.1H180c-8.1,16.5-18.9,26.2-41.5,26.2
		c-49.1,0-71.7-48.3-71.7-103.1c0-57.6,24.2-103.1,71.3-103.1c19.7,0,37.1,8.5,45.9,25.8h0.8c0,0-0.4-2-0.4-5.6v-15.3h43.9V577
		c0,70.9-44.7,97.5-87.8,97.5c-20.1,0-42.3-6-57.6-14.9l11.3-39.5C103.9,626.5,122,632.2,136.9,632.2z M181.3,482.3
		c0-47.5-15.3-60.4-33-60.4c-23.4,0-32.6,23-32.6,58.8s10.1,62.8,33.4,62.8C166.4,543.6,181.3,529.5,181.3,482.3z"/>
</g>
<g class="st1">
	<path class="st2" d="M287.1,303.9H335v151.5h15.7l37.1-70.9h52l-47.9,91.8v0.8l53.6,112.8h-53.6l-39.9-89.4H335v89.4h-47.9V303.9z"
		/>
</g>
</svg>
