<?xml version="1.0" encoding="utf-8"?>
<!-- Generator: Adobe Illustrator 19.1.0, SVG Export Plug-In . SVG Version: 6.00 Build 0)  -->
<svg version="1.1" id="Layer_1" xmlns="http://www.w3.org/2000/svg" xmlns:xlink="http://www.w3.org/1999/xlink" x="0px" y="0px"
	 viewBox="0 0 432.071 445.383" enable-background="new 0 0 432.071 445.383" xml:space="preserve">
<g id="orginal">
</g>
<path fill="#336791" d="M402.395,271.23c-50.303,10.375-53.76-6.655-53.76-6.655c53.111-78.808,75.312-178.843,56.152-203.326
	c-52.27-66.785-142.752-35.2-144.262-34.38l-0.486,0.087c-9.938-2.063-21.06-3.292-33.56-3.496
	c-22.761-0.373-40.026,5.967-53.127,15.902c0,0-161.411-66.495-153.904,83.63c1.597,31.938,45.776,241.656,98.471,178.312
	c19.26-23.163,37.869-42.747,37.869-42.747c9.243,6.14,20.308,9.271,31.908,8.146l0.901-0.766c-0.28,2.877-0.152,5.689,0.361,9.02
	c-13.575,15.167-9.586,17.83-36.723,23.416c-27.459,5.659-11.328,15.734-0.796,18.367c12.768,3.193,42.307,7.716,62.266-20.225
	l-0.796,3.189c5.319,4.26,9.053,27.711,8.428,48.969c-0.627,21.259-1.045,35.854,3.146,47.254c4.191,11.4,8.368,37.05,44.042,29.406
	c29.81-6.388,45.257-22.942,47.405-50.555c1.525-19.632,4.976-16.73,5.193-34.28l2.768-8.309
	c3.193-26.611,0.508-35.196,18.873-31.203l4.463,0.392c13.518,0.615,31.209-2.174,41.592-7c22.357-10.376,35.617-27.7,13.572-23.147
	H402.395z"/>
<g>
	<path fill="#FFFFFF" d="M193.549,144.634c0.55-3.952-5.186-6.585-10.748-7.359c-4.532-0.631-8.639-0.048-10.715,1.524
		c-1.168,0.884-1.529,1.909-1.626,2.615c-0.261,1.87,1.048,3.936,1.852,5.002c2.276,3.017,5.602,5.091,8.895,5.548
		c0.476,0.066,0.95,0.098,1.421,0.098C188.118,152.062,193.109,147.789,193.549,144.634z"/>
	<path fill="#FFFFFF" d="M332.97,137.4c-0.434-3.097-5.95-3.979-11.174-3.253c-5.222,0.728-10.287,3.086-9.865,6.189
		c0.34,2.414,4.697,6.534,9.858,6.534c0.435,0,0.875-0.029,1.318-0.091c3.443-0.477,5.971-2.664,7.171-3.924
		C332.108,140.934,333.165,138.792,332.97,137.4L332.97,137.4z"/>
	<path fill="#FFFFFF" d="M419.134,270.051c-1.918-5.801-8.092-7.67-18.349-5.549c-30.448,6.283-41.358,1.933-44.942-0.704
		c23.673-36.062,43.146-79.651,53.651-120.323c4.976-19.265,7.725-37.156,7.95-51.738c0.247-16.008-2.478-27.769-8.101-34.954
		c-22.669-28.966-55.938-44.502-96.211-44.93c-27.667-0.28-51.074,6.778-55.612,8.767c-9.55-2.375-19.961-3.833-31.295-4.019
		c-20.783-0.326-38.748,4.645-53.623,14.783c-6.46-2.404-23.159-8.137-43.58-11.427c-35.304-5.685-63.357-1.377-83.376,12.805
		c-23.889,16.924-34.917,47.176-32.779,89.914c0.719,14.38,8.911,58.613,21.841,100.976c17.019,55.756,35.518,87.318,54.984,93.812
		c2.278,0.76,4.907,1.291,7.802,1.291c7.101,0,15.806-3.2,24.864-14.089c15.045-18.1,29.092-33.268,34.269-38.779
		c7.652,4.107,16.058,6.4,24.657,6.63c0.015,0.225,0.038,0.45,0.058,0.675c-1.726,2.045-3.141,3.838-4.346,5.369
		c-5.958,7.562-7.197,9.137-26.374,13.085c-5.454,1.125-19.942,4.111-20.154,14.267c-0.231,11.095,17.124,15.755,19.103,16.249
		c6.891,1.725,13.529,2.576,19.859,2.576c15.398-0.001,28.947-5.061,39.776-14.853c-0.334,39.555,1.317,78.532,6.065,90.408
		c3.888,9.721,13.389,33.482,43.408,33.48c4.403-0.001,9.253-0.513,14.586-1.655c31.325-6.716,44.929-20.562,50.192-51.086
		c2.815-16.318,7.648-55.271,9.92-76.165c4.797,1.497,10.974,2.181,17.651,2.181c13.924,0,29.989-2.958,40.065-7.635
		C402.413,294.157,422.837,281.257,419.134,270.051z M314.691,24.345c36.084,0.797,64.627,14.295,84.837,40.12
		c15.5,19.809-1.568,109.939-50.98,187.694c-0.488-0.62-0.985-1.246-1.499-1.887c-0.206-0.257-0.415-0.519-0.626-0.783
		c12.768-21.087,10.272-41.95,8.049-60.448c-0.912-7.591-1.773-14.762-1.555-21.496c0.228-7.14,1.171-13.262,2.083-19.183
		c1.123-7.295,2.264-14.843,1.949-23.741c0.235-0.933,0.33-2.036,0.207-3.344c-0.804-8.535-10.547-34.071-30.405-57.188
		c-10.859-12.642-26.699-26.789-48.325-36.333C287.729,25.829,300.448,24.032,314.691,24.345z M342.096,190.528
		c1.874,15.594,3.796,31.648-3.648,47.49c-1.157-2.054-2.273-4.296-3.297-6.779c-0.926-2.243-2.935-5.847-5.716-10.833
		c-10.823-19.41-36.17-64.864-23.194-83.412c3.864-5.523,13.67-11.2,38.292-8.142c-0.104,6.168-0.952,11.767-1.853,17.613
		c-0.969,6.287-1.97,12.789-2.222,20.679C340.209,174.823,341.168,182.807,342.096,190.528z M112.773,296.696
		c-9.98,11.997-16.874,9.699-19.137,8.942c-14.767-4.925-31.9-36.135-47.006-85.626c-13.071-42.823-20.709-85.884-21.313-97.959
		c-1.91-38.188,7.347-64.803,27.515-79.104c32.82-23.276,86.78-9.344,108.462-2.278c-0.312,0.306-0.636,0.594-0.945,0.906
		c-35.579,35.934-34.736,97.325-34.648,101.077c-0.004,1.448,0.117,3.498,0.285,6.319c0.612,10.325,1.751,29.542-1.292,51.307
		c-2.829,20.225,3.405,40.02,17.101,54.31c1.418,1.479,2.898,2.868,4.427,4.175C140.124,265.294,126.875,279.731,112.773,296.696z
		 M150.793,245.965c-11.038-11.517-16.051-27.539-13.755-43.958c3.215-22.992,2.028-43.014,1.391-53.771
		c-0.089-1.506-0.167-2.825-0.215-3.866c5.198-4.608,29.285-17.515,46.462-13.578c7.839,1.796,12.615,7.133,14.601,16.314
		c10.278,47.533,1.361,67.346-5.805,83.265c-1.477,3.281-2.872,6.38-4.064,9.589l-0.923,2.479
		c-2.338,6.269-4.512,12.097-5.861,17.632C170.89,260.035,159.474,255.021,150.793,245.965z M208.278,292.265
		c-15.893,22.252-39.051,21.966-55.683,17.805c-3.426-0.856-6.508-2.344-8.316-3.576c1.51-0.711,4.198-1.677,8.859-2.638
		c22.56-4.645,26.042-7.922,33.65-17.581c1.745-2.215,3.722-4.726,6.459-7.783c0.001-0.002,0.002-0.003,0.004-0.004
		c4.079-4.566,5.943-3.792,9.327-2.39c2.742,1.136,5.413,4.571,6.495,8.354C209.584,286.238,210.161,289.628,208.278,292.265z
		 M322.08,292.551c-0.929,11.767-7.545,66.882-10.905,86.362c-4.437,25.727-13.904,35.311-40.521,41.017
		c-27.601,5.918-37.369-8.168-43.808-24.266c-4.155-10.393-6.197-57.255-4.75-109.006c0.019-0.688-0.078-1.352-0.267-1.977
		c-0.165-1.207-0.42-2.429-0.772-3.66c-2.155-7.529-7.407-13.828-13.707-16.439c-2.503-1.037-7.098-2.94-12.619-1.527
		c1.177-4.852,3.22-10.328,5.432-16.261l0.93-2.496c1.045-2.812,2.357-5.727,3.745-8.812c7.498-16.658,17.767-39.472,6.622-91.016
		c-4.176-19.306-18.122-28.734-39.251-26.543c-12.669,1.312-24.259,6.424-30.04,9.354c-1.242,0.63-2.379,1.238-3.441,1.83
		c1.613-19.452,7.711-55.802,30.514-78.801c14.357-14.48,33.456-21.626,56.778-21.247c45.904,0.752,75.342,24.311,91.953,43.941
		c14.316,16.917,22.067,33.957,25.161,43.147c-23.257-2.366-39.087,2.229-47.108,13.695c-17.451,24.944,9.547,73.36,22.521,96.627
		c2.379,4.266,4.434,7.95,5.079,9.516c4.224,10.242,9.695,17.078,13.69,22.069c1.223,1.528,2.41,3.012,3.313,4.305
		C333.584,264.398,320.928,269.091,322.08,292.551z M385.845,288.107c-7.206,3.345-19.264,5.854-30.719,6.392
		c-12.661,0.592-19.092-1.418-20.607-2.654c-0.712-14.619,4.731-16.147,10.491-17.764c0.904-0.254,1.787-0.502,2.64-0.8
		c0.53,0.431,1.109,0.858,1.744,1.277c10.17,6.714,28.308,7.437,53.912,2.15c0.096-0.02,0.19-0.039,0.283-0.058
		C400.136,279.881,394.226,284.216,385.845,288.107z"/>
</g>
<path fill="none" stroke="#FFFFFF" stroke-width="3" stroke-linecap="round" stroke-linejoin="round" d="M0,60.232"/>
</svg>
