<?xml version="1.0" encoding="utf-8"?>
<!-- Generator: Adobe Illustrator 19.1.0, SVG Export Plug-In . SVG Version: 6.00 Build 0)  -->
<svg version="1.1" id="Layer_1" xmlns="http://www.w3.org/2000/svg" xmlns:xlink="http://www.w3.org/1999/xlink" x="0px" y="0px"
	 viewBox="0 0 50 50" style="enable-background:new 0 0 50 50;" xml:space="preserve">
<style type="text/css">
	.st0{fill:#FFFFFF;}
</style>
<g>
	<path d="M50,44c0,3.3-2.7,6-6,6H6c-3.3,0-6-2.7-6-6V6c0-3.3,2.7-6,6-6h38c3.3,0,6,2.7,6,6V44z"/>
</g>
<path class="st0" d="M9.5,24.4c-0.2,0.2-0.6,0.2-0.8,0l-0.9-0.9c-0.2-0.2-0.2-0.6,0-0.8l7-7l-7-7c-0.2-0.2-0.2-0.6,0-0.8L8.7,7
	C9,6.8,9.3,6.8,9.5,7l8.3,8.3c0.2,0.2,0.2,0.6,0,0.8L9.5,24.4z M33.3,25.4c0,0.3-0.2,0.6-0.6,0.6H19.4c-0.3,0-0.6-0.2-0.6-0.6v-1.1
	c0-0.3,0.2-0.6,0.6-0.6h13.3c0.3,0,0.6,0.2,0.6,0.6V25.4z"/>
</svg>
